%TF.GenerationSoftware,KiCad,Pcbnew,8.0.6*%
%TF.CreationDate,2024-11-10T20:15:22+09:00*%
%TF.ProjectId,sao-petal,73616f2d-7065-4746-916c-2e6b69636164,-*%
%TF.SameCoordinates,Original*%
%TF.FileFunction,Profile,NP*%
%FSLAX46Y46*%
G04 Gerber Fmt 4.6, Leading zero omitted, Abs format (unit mm)*
G04 Created by KiCad (PCBNEW 8.0.6) date 2024-11-10 20:15:22*
%MOMM*%
%LPD*%
G01*
G04 APERTURE LIST*
%TA.AperFunction,Profile*%
%ADD10C,0.050000*%
%TD*%
G04 APERTURE END LIST*
D10*
X156019150Y-61668370D02*
X155879850Y-61380670D01*
X158043150Y-75204370D02*
X157969650Y-73865670D01*
X140574750Y-114849370D02*
X140807150Y-114809970D01*
X157050550Y-65963370D02*
X156906750Y-65195370D01*
X128803250Y-111891170D02*
X129227350Y-111937470D01*
X157396550Y-68172170D02*
X157293050Y-67451670D01*
X134733450Y-114849370D02*
X134981050Y-114869270D01*
X155285350Y-60636570D02*
X155040150Y-60458870D01*
X118821350Y-96267170D02*
X119800450Y-100213270D01*
X118015150Y-67451670D02*
X117911650Y-68172170D01*
X157694950Y-89302970D02*
X157992650Y-86009970D01*
X123641750Y-110885370D02*
X124116050Y-111168470D01*
X133874050Y-114563970D02*
X134073450Y-114668370D01*
X130458750Y-112085770D02*
X130825650Y-112167670D01*
X156355250Y-62793870D02*
X156123150Y-61960570D01*
X122680950Y-109719870D02*
X122897950Y-110159370D01*
X143045250Y-113077570D02*
X143400050Y-112781770D01*
X158095250Y-76521570D02*
X158043150Y-75204370D01*
X117176350Y-82659970D02*
X117315750Y-86009770D01*
X137654050Y-114890970D02*
X139814250Y-114907170D01*
X131908250Y-112781770D02*
X132262950Y-113077570D01*
X150177150Y-111570170D02*
X150692050Y-111399970D01*
X128937550Y-59680770D02*
X126797950Y-59784470D01*
X117436850Y-72499270D02*
X117338650Y-73865670D01*
X117720150Y-69658670D02*
X117562950Y-71098970D01*
X118257650Y-65963370D02*
X118129650Y-66715470D01*
X117338650Y-73865670D02*
X117265050Y-75204370D01*
X156487050Y-96267270D02*
X157204650Y-92676270D01*
X133305750Y-59548770D02*
X131113750Y-59602670D01*
X119599150Y-61104670D02*
X119428150Y-61379670D01*
X149679250Y-111680670D02*
X150177150Y-111570170D01*
X125634050Y-111678270D02*
X126084250Y-111729570D01*
X155708750Y-61106670D02*
X155509350Y-60855570D01*
X120807450Y-60264270D02*
X120530450Y-60329370D01*
X117562950Y-71098970D02*
X117436850Y-72499270D01*
X118746750Y-63610670D02*
X118563750Y-64411070D01*
X127542950Y-111801170D02*
X128023850Y-111828270D01*
X134981050Y-114869270D02*
X135493950Y-114907170D01*
X117613450Y-89302670D02*
X118103850Y-92676070D01*
X143757850Y-112525170D02*
X144118650Y-112317270D01*
X146080750Y-111934670D02*
X146504750Y-111885970D01*
X158147550Y-79115870D02*
X158128950Y-77823270D01*
X126917350Y-111769970D02*
X127542950Y-111801170D01*
X119185050Y-61960570D02*
X118953050Y-62793870D01*
X157745350Y-71099070D02*
X157588050Y-69658770D01*
X132614550Y-113402870D02*
X132963050Y-113748170D01*
X157178550Y-66715470D02*
X157050550Y-65963370D01*
X154232850Y-104651770D02*
X155507950Y-100213270D01*
X132262950Y-113077570D02*
X132614550Y-113402870D01*
X120530450Y-60329370D02*
X120267650Y-60455370D01*
X157969650Y-73865670D02*
X157871450Y-72499370D01*
X122897950Y-110159370D02*
X123227050Y-110548470D01*
X137654050Y-59507370D02*
X135492850Y-59517470D01*
X155507950Y-100213270D02*
X156487050Y-96267270D01*
X141626650Y-114435870D02*
X141814550Y-114282870D01*
X154777450Y-60331670D02*
X154500750Y-60264270D01*
X118953050Y-62793870D02*
X118746750Y-63610670D01*
X139818950Y-59515670D02*
X137654050Y-59507370D01*
X117265050Y-75204370D02*
X117213050Y-76521570D01*
X128423050Y-111856470D02*
X128803250Y-111891170D01*
X119288950Y-61668170D02*
X119185050Y-61960570D01*
X118129650Y-66715470D02*
X118015150Y-67451670D01*
X130825650Y-112167670D02*
X131189550Y-112317270D01*
X135493950Y-114907170D02*
X137654050Y-114890970D01*
X154500750Y-60264270D02*
X152621450Y-60062070D01*
X142345150Y-113748170D02*
X142693650Y-113402870D01*
X152621450Y-60062070D02*
X150629550Y-59896670D01*
X124623750Y-111396070D02*
X125138450Y-111566570D01*
X125138450Y-111566570D02*
X125634050Y-111678270D01*
X131189550Y-112317270D02*
X131550350Y-112525170D01*
X157588050Y-69658770D02*
X157396550Y-68172170D01*
X128023850Y-111828270D02*
X128423050Y-111856470D01*
X156561550Y-63610770D02*
X156355250Y-62793870D01*
X131550350Y-112525170D02*
X131908250Y-112781770D01*
X152083450Y-110550070D02*
X152410750Y-110160070D01*
X134501050Y-114809970D02*
X134733450Y-114849370D01*
X150692050Y-111399970D02*
X151198550Y-111171970D01*
X117160650Y-79115870D02*
X117176350Y-82659970D01*
X129227350Y-111937470D02*
X129758250Y-112000570D01*
X155509350Y-60855570D02*
X155285350Y-60636570D01*
X141026450Y-114749970D02*
X141234750Y-114668370D01*
X151670850Y-110888070D02*
X152083450Y-110550070D01*
X143400050Y-112781770D02*
X143757850Y-112525170D01*
X118401550Y-65195270D02*
X118257650Y-65963370D01*
X156123150Y-61960570D02*
X156019150Y-61668370D01*
X123227050Y-110548470D02*
X123641750Y-110885370D01*
X148548950Y-59765070D02*
X146403750Y-59664270D01*
X145549950Y-111999770D02*
X146080750Y-111934670D01*
X148390550Y-111764370D02*
X149223950Y-111729570D01*
X121075450Y-104651770D02*
X122680950Y-109719870D01*
X158128950Y-77823270D02*
X158095250Y-76521570D01*
X146403750Y-59664270D02*
X144217650Y-59591070D01*
X149223950Y-111729570D02*
X149679250Y-111680670D01*
X156744550Y-64411170D02*
X156561550Y-63610770D01*
X156906750Y-65195370D02*
X156744550Y-64411170D01*
X118103850Y-92676070D02*
X118821350Y-96267170D01*
X126084250Y-111729570D02*
X126917350Y-111769970D01*
X134073450Y-114668370D02*
X134281750Y-114749970D01*
X134281750Y-114749970D02*
X134501050Y-114809970D01*
X155879850Y-61380670D02*
X155708750Y-61106670D01*
X120022450Y-60632970D02*
X119798450Y-60852570D01*
X140327150Y-114869270D02*
X140574750Y-114849370D01*
X119800450Y-100213270D02*
X121075450Y-104651770D01*
X141234750Y-114668370D02*
X141434150Y-114563970D01*
X117911650Y-68172170D02*
X117720150Y-69658670D01*
X144118650Y-112317270D02*
X144482550Y-112167670D01*
X147764850Y-111792870D02*
X148390550Y-111764370D01*
X117213050Y-76521570D02*
X117179250Y-77823270D01*
X122712050Y-60074770D02*
X120807450Y-60264270D01*
X133493650Y-114282870D02*
X133681550Y-114435870D01*
X140807150Y-114809970D02*
X141026450Y-114749970D01*
X141814550Y-114282870D02*
X141999750Y-114103970D01*
X157871450Y-72499370D02*
X157745350Y-71099070D01*
X118563750Y-64411070D02*
X118401550Y-65195270D01*
X132963050Y-113748170D02*
X133308450Y-114103970D01*
X144849450Y-112085770D02*
X145549950Y-111999770D01*
X157204650Y-92676270D02*
X157694950Y-89302970D01*
X157992650Y-86009970D02*
X158132050Y-82660070D01*
X135492850Y-59517470D02*
X133305750Y-59548770D01*
X144482550Y-112167670D02*
X144849450Y-112085770D01*
X126797950Y-59784470D02*
X124715850Y-59915370D01*
X129758250Y-112000570D02*
X130458750Y-112085770D01*
X139814250Y-114907170D02*
X140327150Y-114869270D01*
X144217650Y-59591070D02*
X142014750Y-59542570D01*
X146504750Y-111885970D02*
X146884850Y-111849170D01*
X151198550Y-111171970D02*
X151670850Y-110888070D01*
X119428150Y-61379670D02*
X119288950Y-61668170D01*
X147283950Y-111819570D02*
X147764850Y-111792870D01*
X155040150Y-60458870D02*
X154777450Y-60331670D01*
X141999750Y-114103970D02*
X142345150Y-113748170D01*
X152627250Y-109719870D02*
X154232850Y-104651770D01*
X131113750Y-59602670D02*
X128937550Y-59680770D01*
X150629550Y-59896670D02*
X148548950Y-59765070D01*
X157293050Y-67451670D02*
X157178550Y-66715470D01*
X141434150Y-114563970D02*
X141626650Y-114435870D01*
X120267650Y-60455370D02*
X120022450Y-60632970D01*
X119798450Y-60852570D02*
X119599150Y-61104670D01*
X133681550Y-114435870D02*
X133874050Y-114563970D01*
X117179250Y-77823270D02*
X117160650Y-79115870D01*
X133308450Y-114103970D02*
X133493650Y-114282870D01*
X158132050Y-82660070D02*
X158147550Y-79115870D01*
X124715850Y-59915370D02*
X122712050Y-60074770D01*
X142014750Y-59542570D02*
X139818950Y-59515670D01*
X152410750Y-110160070D02*
X152627250Y-109719870D01*
X124116050Y-111168470D02*
X124623750Y-111396070D01*
X142693650Y-113402870D02*
X143045250Y-113077570D01*
X146884850Y-111849170D02*
X147283950Y-111819570D01*
X117315750Y-86009770D02*
X117613450Y-89302670D01*
M02*
