%TF.GenerationSoftware,KiCad,Pcbnew,8.0.6*%
%TF.CreationDate,2024-11-10T20:15:22+09:00*%
%TF.ProjectId,sao-petal,73616f2d-7065-4746-916c-2e6b69636164,-*%
%TF.SameCoordinates,Original*%
%TF.FileFunction,Legend,Top*%
%TF.FilePolarity,Positive*%
%FSLAX46Y46*%
G04 Gerber Fmt 4.6, Leading zero omitted, Abs format (unit mm)*
G04 Created by KiCad (PCBNEW 8.0.6) date 2024-11-10 20:15:22*
%MOMM*%
%LPD*%
G01*
G04 APERTURE LIST*
%ADD10C,0.101600*%
%ADD11C,0.152400*%
%ADD12C,0.150000*%
%ADD13C,0.100000*%
%ADD14C,0.120000*%
G04 APERTURE END LIST*
D10*
X145178834Y-109212691D02*
X145287692Y-109248976D01*
X145287692Y-109248976D02*
X145469120Y-109248976D01*
X145469120Y-109248976D02*
X145541692Y-109212691D01*
X145541692Y-109212691D02*
X145577977Y-109176405D01*
X145577977Y-109176405D02*
X145614263Y-109103833D01*
X145614263Y-109103833D02*
X145614263Y-109031262D01*
X145614263Y-109031262D02*
X145577977Y-108958691D01*
X145577977Y-108958691D02*
X145541692Y-108922405D01*
X145541692Y-108922405D02*
X145469120Y-108886119D01*
X145469120Y-108886119D02*
X145323977Y-108849833D01*
X145323977Y-108849833D02*
X145251406Y-108813548D01*
X145251406Y-108813548D02*
X145215120Y-108777262D01*
X145215120Y-108777262D02*
X145178834Y-108704691D01*
X145178834Y-108704691D02*
X145178834Y-108632119D01*
X145178834Y-108632119D02*
X145215120Y-108559548D01*
X145215120Y-108559548D02*
X145251406Y-108523262D01*
X145251406Y-108523262D02*
X145323977Y-108486976D01*
X145323977Y-108486976D02*
X145505406Y-108486976D01*
X145505406Y-108486976D02*
X145614263Y-108523262D01*
X145940834Y-109248976D02*
X145940834Y-108486976D01*
X145940834Y-108486976D02*
X146122263Y-108486976D01*
X146122263Y-108486976D02*
X146231120Y-108523262D01*
X146231120Y-108523262D02*
X146303691Y-108595833D01*
X146303691Y-108595833D02*
X146339977Y-108668405D01*
X146339977Y-108668405D02*
X146376263Y-108813548D01*
X146376263Y-108813548D02*
X146376263Y-108922405D01*
X146376263Y-108922405D02*
X146339977Y-109067548D01*
X146339977Y-109067548D02*
X146303691Y-109140119D01*
X146303691Y-109140119D02*
X146231120Y-109212691D01*
X146231120Y-109212691D02*
X146122263Y-109248976D01*
X146122263Y-109248976D02*
X145940834Y-109248976D01*
X146666548Y-109031262D02*
X147029406Y-109031262D01*
X146593977Y-109248976D02*
X146847977Y-108486976D01*
X146847977Y-108486976D02*
X147101977Y-109248976D01*
X136148234Y-104227317D02*
X136511092Y-104227317D01*
X136075663Y-104445031D02*
X136329663Y-103683031D01*
X136329663Y-103683031D02*
X136583663Y-104445031D01*
X145178834Y-110711291D02*
X145287692Y-110747576D01*
X145287692Y-110747576D02*
X145469120Y-110747576D01*
X145469120Y-110747576D02*
X145541692Y-110711291D01*
X145541692Y-110711291D02*
X145577977Y-110675005D01*
X145577977Y-110675005D02*
X145614263Y-110602433D01*
X145614263Y-110602433D02*
X145614263Y-110529862D01*
X145614263Y-110529862D02*
X145577977Y-110457291D01*
X145577977Y-110457291D02*
X145541692Y-110421005D01*
X145541692Y-110421005D02*
X145469120Y-110384719D01*
X145469120Y-110384719D02*
X145323977Y-110348433D01*
X145323977Y-110348433D02*
X145251406Y-110312148D01*
X145251406Y-110312148D02*
X145215120Y-110275862D01*
X145215120Y-110275862D02*
X145178834Y-110203291D01*
X145178834Y-110203291D02*
X145178834Y-110130719D01*
X145178834Y-110130719D02*
X145215120Y-110058148D01*
X145215120Y-110058148D02*
X145251406Y-110021862D01*
X145251406Y-110021862D02*
X145323977Y-109985576D01*
X145323977Y-109985576D02*
X145505406Y-109985576D01*
X145505406Y-109985576D02*
X145614263Y-110021862D01*
X146376263Y-110675005D02*
X146339977Y-110711291D01*
X146339977Y-110711291D02*
X146231120Y-110747576D01*
X146231120Y-110747576D02*
X146158548Y-110747576D01*
X146158548Y-110747576D02*
X146049691Y-110711291D01*
X146049691Y-110711291D02*
X145977120Y-110638719D01*
X145977120Y-110638719D02*
X145940834Y-110566148D01*
X145940834Y-110566148D02*
X145904548Y-110421005D01*
X145904548Y-110421005D02*
X145904548Y-110312148D01*
X145904548Y-110312148D02*
X145940834Y-110167005D01*
X145940834Y-110167005D02*
X145977120Y-110094433D01*
X145977120Y-110094433D02*
X146049691Y-110021862D01*
X146049691Y-110021862D02*
X146158548Y-109985576D01*
X146158548Y-109985576D02*
X146231120Y-109985576D01*
X146231120Y-109985576D02*
X146339977Y-110021862D01*
X146339977Y-110021862D02*
X146376263Y-110058148D01*
X146702834Y-110747576D02*
X146702834Y-109985576D01*
X147138263Y-110747576D02*
X146811691Y-110312148D01*
X147138263Y-109985576D02*
X146702834Y-110421005D01*
X138888520Y-104074633D02*
X138997377Y-104110919D01*
X138997377Y-104110919D02*
X139033663Y-104147205D01*
X139033663Y-104147205D02*
X139069949Y-104219776D01*
X139069949Y-104219776D02*
X139069949Y-104328633D01*
X139069949Y-104328633D02*
X139033663Y-104401205D01*
X139033663Y-104401205D02*
X138997377Y-104437491D01*
X138997377Y-104437491D02*
X138924806Y-104473776D01*
X138924806Y-104473776D02*
X138634520Y-104473776D01*
X138634520Y-104473776D02*
X138634520Y-103711776D01*
X138634520Y-103711776D02*
X138888520Y-103711776D01*
X138888520Y-103711776D02*
X138961092Y-103748062D01*
X138961092Y-103748062D02*
X138997377Y-103784348D01*
X138997377Y-103784348D02*
X139033663Y-103856919D01*
X139033663Y-103856919D02*
X139033663Y-103929491D01*
X139033663Y-103929491D02*
X138997377Y-104002062D01*
X138997377Y-104002062D02*
X138961092Y-104038348D01*
X138961092Y-104038348D02*
X138888520Y-104074633D01*
X138888520Y-104074633D02*
X138634520Y-104074633D01*
X148161520Y-109248976D02*
X148161520Y-108486976D01*
X148669520Y-108486976D02*
X148814663Y-108486976D01*
X148814663Y-108486976D02*
X148887234Y-108523262D01*
X148887234Y-108523262D02*
X148959806Y-108595833D01*
X148959806Y-108595833D02*
X148996091Y-108740976D01*
X148996091Y-108740976D02*
X148996091Y-108994976D01*
X148996091Y-108994976D02*
X148959806Y-109140119D01*
X148959806Y-109140119D02*
X148887234Y-109212691D01*
X148887234Y-109212691D02*
X148814663Y-109248976D01*
X148814663Y-109248976D02*
X148669520Y-109248976D01*
X148669520Y-109248976D02*
X148596949Y-109212691D01*
X148596949Y-109212691D02*
X148524377Y-109140119D01*
X148524377Y-109140119D02*
X148488091Y-108994976D01*
X148488091Y-108994976D02*
X148488091Y-108740976D01*
X148488091Y-108740976D02*
X148524377Y-108595833D01*
X148524377Y-108595833D02*
X148596949Y-108523262D01*
X148596949Y-108523262D02*
X148669520Y-108486976D01*
X149721806Y-109248976D02*
X149286377Y-109248976D01*
X149504092Y-109248976D02*
X149504092Y-108486976D01*
X149504092Y-108486976D02*
X149431520Y-108595833D01*
X149431520Y-108595833D02*
X149358949Y-108668405D01*
X149358949Y-108668405D02*
X149286377Y-108704691D01*
X124834520Y-99995031D02*
X124834520Y-99233031D01*
X125632806Y-99995031D02*
X125378806Y-99632174D01*
X125197377Y-99995031D02*
X125197377Y-99233031D01*
X125197377Y-99233031D02*
X125487663Y-99233031D01*
X125487663Y-99233031D02*
X125560234Y-99269317D01*
X125560234Y-99269317D02*
X125596520Y-99305603D01*
X125596520Y-99305603D02*
X125632806Y-99378174D01*
X125632806Y-99378174D02*
X125632806Y-99487031D01*
X125632806Y-99487031D02*
X125596520Y-99559603D01*
X125596520Y-99559603D02*
X125560234Y-99595888D01*
X125560234Y-99595888D02*
X125487663Y-99632174D01*
X125487663Y-99632174D02*
X125197377Y-99632174D01*
X126467377Y-100067603D02*
X126394806Y-100031317D01*
X126394806Y-100031317D02*
X126322234Y-99958746D01*
X126322234Y-99958746D02*
X126213377Y-99849888D01*
X126213377Y-99849888D02*
X126140806Y-99813603D01*
X126140806Y-99813603D02*
X126068234Y-99813603D01*
X126104520Y-99995031D02*
X126031949Y-99958746D01*
X126031949Y-99958746D02*
X125959377Y-99886174D01*
X125959377Y-99886174D02*
X125923091Y-99741031D01*
X125923091Y-99741031D02*
X125923091Y-99487031D01*
X125923091Y-99487031D02*
X125959377Y-99341888D01*
X125959377Y-99341888D02*
X126031949Y-99269317D01*
X126031949Y-99269317D02*
X126104520Y-99233031D01*
X126104520Y-99233031D02*
X126249663Y-99233031D01*
X126249663Y-99233031D02*
X126322234Y-99269317D01*
X126322234Y-99269317D02*
X126394806Y-99341888D01*
X126394806Y-99341888D02*
X126431091Y-99487031D01*
X126431091Y-99487031D02*
X126431091Y-99741031D01*
X126431091Y-99741031D02*
X126394806Y-99886174D01*
X126394806Y-99886174D02*
X126322234Y-99958746D01*
X126322234Y-99958746D02*
X126249663Y-99995031D01*
X126249663Y-99995031D02*
X126104520Y-99995031D01*
X142718663Y-108486976D02*
X142972663Y-109248976D01*
X142972663Y-109248976D02*
X143226663Y-108486976D01*
X143480663Y-108958691D02*
X144061235Y-108958691D01*
X143770949Y-109248976D02*
X143770949Y-108668405D01*
X142896463Y-110021862D02*
X142823892Y-109985576D01*
X142823892Y-109985576D02*
X142715034Y-109985576D01*
X142715034Y-109985576D02*
X142606177Y-110021862D01*
X142606177Y-110021862D02*
X142533606Y-110094433D01*
X142533606Y-110094433D02*
X142497320Y-110167005D01*
X142497320Y-110167005D02*
X142461034Y-110312148D01*
X142461034Y-110312148D02*
X142461034Y-110421005D01*
X142461034Y-110421005D02*
X142497320Y-110566148D01*
X142497320Y-110566148D02*
X142533606Y-110638719D01*
X142533606Y-110638719D02*
X142606177Y-110711291D01*
X142606177Y-110711291D02*
X142715034Y-110747576D01*
X142715034Y-110747576D02*
X142787606Y-110747576D01*
X142787606Y-110747576D02*
X142896463Y-110711291D01*
X142896463Y-110711291D02*
X142932749Y-110675005D01*
X142932749Y-110675005D02*
X142932749Y-110421005D01*
X142932749Y-110421005D02*
X142787606Y-110421005D01*
X143259320Y-110747576D02*
X143259320Y-109985576D01*
X143259320Y-109985576D02*
X143694749Y-110747576D01*
X143694749Y-110747576D02*
X143694749Y-109985576D01*
X144057606Y-110747576D02*
X144057606Y-109985576D01*
X144057606Y-109985576D02*
X144239035Y-109985576D01*
X144239035Y-109985576D02*
X144347892Y-110021862D01*
X144347892Y-110021862D02*
X144420463Y-110094433D01*
X144420463Y-110094433D02*
X144456749Y-110167005D01*
X144456749Y-110167005D02*
X144493035Y-110312148D01*
X144493035Y-110312148D02*
X144493035Y-110421005D01*
X144493035Y-110421005D02*
X144456749Y-110566148D01*
X144456749Y-110566148D02*
X144420463Y-110638719D01*
X144420463Y-110638719D02*
X144347892Y-110711291D01*
X144347892Y-110711291D02*
X144239035Y-110747576D01*
X144239035Y-110747576D02*
X144057606Y-110747576D01*
X148034520Y-110747576D02*
X148034520Y-109985576D01*
X148542520Y-109985576D02*
X148687663Y-109985576D01*
X148687663Y-109985576D02*
X148760234Y-110021862D01*
X148760234Y-110021862D02*
X148832806Y-110094433D01*
X148832806Y-110094433D02*
X148869091Y-110239576D01*
X148869091Y-110239576D02*
X148869091Y-110493576D01*
X148869091Y-110493576D02*
X148832806Y-110638719D01*
X148832806Y-110638719D02*
X148760234Y-110711291D01*
X148760234Y-110711291D02*
X148687663Y-110747576D01*
X148687663Y-110747576D02*
X148542520Y-110747576D01*
X148542520Y-110747576D02*
X148469949Y-110711291D01*
X148469949Y-110711291D02*
X148397377Y-110638719D01*
X148397377Y-110638719D02*
X148361091Y-110493576D01*
X148361091Y-110493576D02*
X148361091Y-110239576D01*
X148361091Y-110239576D02*
X148397377Y-110094433D01*
X148397377Y-110094433D02*
X148469949Y-110021862D01*
X148469949Y-110021862D02*
X148542520Y-109985576D01*
X149159377Y-110058148D02*
X149195663Y-110021862D01*
X149195663Y-110021862D02*
X149268235Y-109985576D01*
X149268235Y-109985576D02*
X149449663Y-109985576D01*
X149449663Y-109985576D02*
X149522235Y-110021862D01*
X149522235Y-110021862D02*
X149558520Y-110058148D01*
X149558520Y-110058148D02*
X149594806Y-110130719D01*
X149594806Y-110130719D02*
X149594806Y-110203291D01*
X149594806Y-110203291D02*
X149558520Y-110312148D01*
X149558520Y-110312148D02*
X149123092Y-110747576D01*
X149123092Y-110747576D02*
X149594806Y-110747576D01*
D11*
X127258084Y-106462482D02*
X127693513Y-106462482D01*
X127170998Y-106723739D02*
X127475798Y-105809339D01*
X127475798Y-105809339D02*
X127780598Y-106723739D01*
X128041855Y-106680197D02*
X128172484Y-106723739D01*
X128172484Y-106723739D02*
X128390198Y-106723739D01*
X128390198Y-106723739D02*
X128477284Y-106680197D01*
X128477284Y-106680197D02*
X128520826Y-106636654D01*
X128520826Y-106636654D02*
X128564369Y-106549568D01*
X128564369Y-106549568D02*
X128564369Y-106462482D01*
X128564369Y-106462482D02*
X128520826Y-106375397D01*
X128520826Y-106375397D02*
X128477284Y-106331854D01*
X128477284Y-106331854D02*
X128390198Y-106288311D01*
X128390198Y-106288311D02*
X128216026Y-106244768D01*
X128216026Y-106244768D02*
X128128941Y-106201225D01*
X128128941Y-106201225D02*
X128085398Y-106157682D01*
X128085398Y-106157682D02*
X128041855Y-106070597D01*
X128041855Y-106070597D02*
X128041855Y-105983511D01*
X128041855Y-105983511D02*
X128085398Y-105896425D01*
X128085398Y-105896425D02*
X128128941Y-105852882D01*
X128128941Y-105852882D02*
X128216026Y-105809339D01*
X128216026Y-105809339D02*
X128433741Y-105809339D01*
X128433741Y-105809339D02*
X128564369Y-105852882D01*
X129435226Y-106723739D02*
X128912712Y-106723739D01*
X129173969Y-106723739D02*
X129173969Y-105809339D01*
X129173969Y-105809339D02*
X129086883Y-105939968D01*
X129086883Y-105939968D02*
X128999798Y-106027054D01*
X128999798Y-106027054D02*
X128912712Y-106070597D01*
X130306083Y-106723739D02*
X129783569Y-106723739D01*
X130044826Y-106723739D02*
X130044826Y-105809339D01*
X130044826Y-105809339D02*
X129957740Y-105939968D01*
X129957740Y-105939968D02*
X129870655Y-106027054D01*
X129870655Y-106027054D02*
X129783569Y-106070597D01*
X131176940Y-106723739D02*
X130654426Y-106723739D01*
X130915683Y-106723739D02*
X130915683Y-105809339D01*
X130915683Y-105809339D02*
X130828597Y-105939968D01*
X130828597Y-105939968D02*
X130741512Y-106027054D01*
X130741512Y-106027054D02*
X130654426Y-106070597D01*
X132004254Y-105809339D02*
X131568826Y-105809339D01*
X131568826Y-105809339D02*
X131525283Y-106244768D01*
X131525283Y-106244768D02*
X131568826Y-106201225D01*
X131568826Y-106201225D02*
X131655912Y-106157682D01*
X131655912Y-106157682D02*
X131873626Y-106157682D01*
X131873626Y-106157682D02*
X131960712Y-106201225D01*
X131960712Y-106201225D02*
X132004254Y-106244768D01*
X132004254Y-106244768D02*
X132047797Y-106331854D01*
X132047797Y-106331854D02*
X132047797Y-106549568D01*
X132047797Y-106549568D02*
X132004254Y-106636654D01*
X132004254Y-106636654D02*
X131960712Y-106680197D01*
X131960712Y-106680197D02*
X131873626Y-106723739D01*
X131873626Y-106723739D02*
X131655912Y-106723739D01*
X131655912Y-106723739D02*
X131568826Y-106680197D01*
X131568826Y-106680197D02*
X131525283Y-106636654D01*
D12*
X140002916Y-108048389D02*
X140002916Y-108762674D01*
X140002916Y-108762674D02*
X139955297Y-108905531D01*
X139955297Y-108905531D02*
X139860059Y-109000770D01*
X139860059Y-109000770D02*
X139717202Y-109048389D01*
X139717202Y-109048389D02*
X139621964Y-109048389D01*
X141002916Y-109048389D02*
X140431488Y-109048389D01*
X140717202Y-109048389D02*
X140717202Y-108048389D01*
X140717202Y-108048389D02*
X140621964Y-108191246D01*
X140621964Y-108191246D02*
X140526726Y-108286484D01*
X140526726Y-108286484D02*
X140431488Y-108334103D01*
D13*
X123709250Y-98618314D02*
X123672964Y-98654600D01*
X123672964Y-98654600D02*
X123564107Y-98690885D01*
X123564107Y-98690885D02*
X123491535Y-98690885D01*
X123491535Y-98690885D02*
X123382678Y-98654600D01*
X123382678Y-98654600D02*
X123310107Y-98582028D01*
X123310107Y-98582028D02*
X123273821Y-98509457D01*
X123273821Y-98509457D02*
X123237535Y-98364314D01*
X123237535Y-98364314D02*
X123237535Y-98255457D01*
X123237535Y-98255457D02*
X123273821Y-98110314D01*
X123273821Y-98110314D02*
X123310107Y-98037742D01*
X123310107Y-98037742D02*
X123382678Y-97965171D01*
X123382678Y-97965171D02*
X123491535Y-97928885D01*
X123491535Y-97928885D02*
X123564107Y-97928885D01*
X123564107Y-97928885D02*
X123672964Y-97965171D01*
X123672964Y-97965171D02*
X123709250Y-98001457D01*
X124434964Y-98690885D02*
X123999535Y-98690885D01*
X124217250Y-98690885D02*
X124217250Y-97928885D01*
X124217250Y-97928885D02*
X124144678Y-98037742D01*
X124144678Y-98037742D02*
X124072107Y-98110314D01*
X124072107Y-98110314D02*
X123999535Y-98146600D01*
D12*
X122824345Y-107548389D02*
X122824345Y-108357912D01*
X122824345Y-108357912D02*
X122871964Y-108453150D01*
X122871964Y-108453150D02*
X122919583Y-108500770D01*
X122919583Y-108500770D02*
X123014821Y-108548389D01*
X123014821Y-108548389D02*
X123205297Y-108548389D01*
X123205297Y-108548389D02*
X123300535Y-108500770D01*
X123300535Y-108500770D02*
X123348154Y-108453150D01*
X123348154Y-108453150D02*
X123395773Y-108357912D01*
X123395773Y-108357912D02*
X123395773Y-107548389D01*
X124395773Y-108548389D02*
X123824345Y-108548389D01*
X124110059Y-108548389D02*
X124110059Y-107548389D01*
X124110059Y-107548389D02*
X124014821Y-107691246D01*
X124014821Y-107691246D02*
X123919583Y-107786484D01*
X123919583Y-107786484D02*
X123824345Y-107834103D01*
D13*
X144209250Y-106440885D02*
X143955250Y-106078028D01*
X143773821Y-106440885D02*
X143773821Y-105678885D01*
X143773821Y-105678885D02*
X144064107Y-105678885D01*
X144064107Y-105678885D02*
X144136678Y-105715171D01*
X144136678Y-105715171D02*
X144172964Y-105751457D01*
X144172964Y-105751457D02*
X144209250Y-105824028D01*
X144209250Y-105824028D02*
X144209250Y-105932885D01*
X144209250Y-105932885D02*
X144172964Y-106005457D01*
X144172964Y-106005457D02*
X144136678Y-106041742D01*
X144136678Y-106041742D02*
X144064107Y-106078028D01*
X144064107Y-106078028D02*
X143773821Y-106078028D01*
X144862393Y-105678885D02*
X144717250Y-105678885D01*
X144717250Y-105678885D02*
X144644678Y-105715171D01*
X144644678Y-105715171D02*
X144608393Y-105751457D01*
X144608393Y-105751457D02*
X144535821Y-105860314D01*
X144535821Y-105860314D02*
X144499535Y-106005457D01*
X144499535Y-106005457D02*
X144499535Y-106295742D01*
X144499535Y-106295742D02*
X144535821Y-106368314D01*
X144535821Y-106368314D02*
X144572107Y-106404600D01*
X144572107Y-106404600D02*
X144644678Y-106440885D01*
X144644678Y-106440885D02*
X144789821Y-106440885D01*
X144789821Y-106440885D02*
X144862393Y-106404600D01*
X144862393Y-106404600D02*
X144898678Y-106368314D01*
X144898678Y-106368314D02*
X144934964Y-106295742D01*
X144934964Y-106295742D02*
X144934964Y-106114314D01*
X144934964Y-106114314D02*
X144898678Y-106041742D01*
X144898678Y-106041742D02*
X144862393Y-106005457D01*
X144862393Y-106005457D02*
X144789821Y-105969171D01*
X144789821Y-105969171D02*
X144644678Y-105969171D01*
X144644678Y-105969171D02*
X144572107Y-106005457D01*
X144572107Y-106005457D02*
X144535821Y-106041742D01*
X144535821Y-106041742D02*
X144499535Y-106114314D01*
D14*
%TO.C,LED26*%
X148175480Y-93836949D02*
G75*
G02*
X148553447Y-91963411I966570J779899D01*
G01*
X150108620Y-92277151D02*
G75*
G02*
X149746083Y-94142243I-966571J-779899D01*
G01*
%TO.C,LED27*%
X146659716Y-98093068D02*
G75*
G02*
X147479706Y-96366620I1126534J522898D01*
G01*
X148912784Y-97047272D02*
G75*
G02*
X148109809Y-98769258I-1126535J-522898D01*
G01*
%TO.C,TP2*%
X137286461Y-105843570D02*
G75*
G02*
X135386039Y-105843570I-950211J0D01*
G01*
X135386039Y-105843570D02*
G75*
G02*
X137286461Y-105843570I950211J0D01*
G01*
%TO.C,LED33*%
X137695311Y-98592922D02*
G75*
G02*
X139340530Y-97620166I1226339J-196448D01*
G01*
X140147989Y-98985818D02*
G75*
G02*
X138519372Y-99964390I-1226339J196448D01*
G01*
%TO.C,LED49*%
X120776021Y-75234786D02*
G75*
G02*
X121040450Y-73353277I924430J829416D01*
G01*
X122624879Y-73575954D02*
G75*
G02*
X122345483Y-75466705I-924429J-829416D01*
G01*
%TO.C,LED46*%
X124838035Y-85915785D02*
G75*
G02*
X126131595Y-87322805I62814J-1240386D01*
G01*
X124963665Y-88396555D02*
G75*
G02*
X123667870Y-87006983I-62814J1240384D01*
G01*
%TO.C,LED48*%
X120739352Y-79941187D02*
G75*
G02*
X120706192Y-78041477I783301J963817D01*
G01*
X122305948Y-78013553D02*
G75*
G02*
X122325771Y-79924733I-783298J-963817D01*
G01*
%TO.C,LED20*%
X153403752Y-86468987D02*
G75*
G02*
X153383929Y-84557807I783298J963817D01*
G01*
X154970348Y-84541353D02*
G75*
G02*
X155003508Y-86441063I-783301J-963817D01*
G01*
%TO.C,LED7*%
X144691357Y-62946312D02*
G75*
G02*
X146591067Y-62979472I935893J-816461D01*
G01*
X146563143Y-64579228D02*
G75*
G02*
X144652436Y-64532339I-935893J816458D01*
G01*
%TO.C,LED12*%
X146618476Y-68205151D02*
G75*
G02*
X148453735Y-68696907I710574J-1018620D01*
G01*
X148039624Y-70242389D02*
G75*
G02*
X146197017Y-69734651I-710575J1018614D01*
G01*
%TO.C,LED57*%
X135088140Y-85528350D02*
X135088140Y-79078350D01*
X135688140Y-85528350D02*
X135088140Y-85528350D01*
X140588140Y-85528350D02*
X140588140Y-79078350D01*
%TO.C,LED53*%
X125461956Y-77072967D02*
G75*
G02*
X125362517Y-75175571I749185J990567D01*
G01*
X126960324Y-75091833D02*
G75*
G02*
X127046834Y-77001157I-749184J-990567D01*
G01*
%TO.C,LED39*%
X131370164Y-94686690D02*
G75*
G02*
X133254713Y-94368135I1074487J-622882D01*
G01*
X133519136Y-95932450D02*
G75*
G02*
X131648001Y-96262382I-1074487J622883D01*
G01*
%TO.C,LED17*%
X146831552Y-73685236D02*
G75*
G02*
X148553538Y-74488211I522898J-1126535D01*
G01*
X147877348Y-75938304D02*
G75*
G02*
X146150900Y-75118314I-522898J1126534D01*
G01*
%TO.C,LED38*%
X135057326Y-93669350D02*
G75*
G02*
X136719271Y-92725454I1222724J-217820D01*
G01*
X137502774Y-94104990D02*
G75*
G02*
X135857326Y-95054991I-1222725J217821D01*
G01*
%TO.C,LED2*%
X129997399Y-78250738D02*
G75*
G02*
X129537748Y-76407178I546413J1115318D01*
G01*
X131090221Y-76020102D02*
G75*
G02*
X131539457Y-77877839I-546411J-1115318D01*
G01*
%TO.C,LED21*%
X153084821Y-91135186D02*
G75*
G02*
X153364217Y-89244435I924429J829416D01*
G01*
X154933679Y-89476354D02*
G75*
G02*
X154669250Y-91357863I-924430J-829416D01*
G01*
%TO.C,LED40*%
X127670076Y-94214751D02*
G75*
G02*
X129512683Y-94722489I710575J-1018614D01*
G01*
X129091224Y-96251989D02*
G75*
G02*
X127255965Y-95760233I-710574J1018620D01*
G01*
%TO.C,LED4*%
X132360626Y-68704697D02*
G75*
G02*
X133607138Y-67270748I1227024J192127D01*
G01*
X134814674Y-68320443D02*
G75*
G02*
X133550576Y-69753991I-1227024J-192127D01*
G01*
%TO.C,LED13*%
X150808140Y-69591308D02*
G75*
G02*
X152419431Y-70598155I381708J-1181865D01*
G01*
X151571560Y-71955032D02*
G75*
G02*
X149957913Y-70930753I-381713J1181858D01*
G01*
%TO.C,J1*%
X133752718Y-110755637D02*
X133766250Y-113453570D01*
X138896250Y-109473570D02*
X135003679Y-109455637D01*
X138896250Y-109473570D02*
X138896250Y-112073570D01*
X138896250Y-112073570D02*
X141496250Y-112073570D01*
X140166250Y-109473570D02*
X141496250Y-109473570D01*
X140217372Y-114682737D02*
X135066250Y-114704531D01*
X141496250Y-109473570D02*
X141496250Y-110803570D01*
X141496250Y-112073570D02*
X141496250Y-113373570D01*
X133752718Y-110755637D02*
G75*
G02*
X135003679Y-109455637I1300963J-2D01*
G01*
X135066250Y-114704531D02*
G75*
G02*
X133766250Y-113453570I0J1300961D01*
G01*
X141496250Y-113373570D02*
G75*
G02*
X140217372Y-114682738I-1330000J20000D01*
G01*
%TO.C,C1*%
X123313750Y-101305828D02*
X123313750Y-100831312D01*
X124358750Y-101305828D02*
X124358750Y-100831312D01*
%TO.C,LED52*%
X126202787Y-81702255D02*
G75*
G02*
X125711031Y-79866996I526864J1124685D01*
G01*
X127256513Y-79452885D02*
G75*
G02*
X127738103Y-81302500I-526858J-1124684D01*
G01*
%TO.C,LED28*%
X143810069Y-101656357D02*
G75*
G02*
X145123427Y-100267798I1232984J149186D01*
G01*
X146276031Y-101357983D02*
G75*
G02*
X144980235Y-102747555I-1232980J-149189D01*
G01*
%TO.C,LED15*%
X137755878Y-76714583D02*
G75*
G02*
X139211362Y-75493286I1241974J-2189D01*
G01*
X140239822Y-76718957D02*
G75*
G02*
X138767031Y-77937107I-1241972J2187D01*
G01*
%TO.C,LED19*%
X152919267Y-82315521D02*
G75*
G02*
X152093602Y-80591781I302583J1204551D01*
G01*
X153524433Y-79906419D02*
G75*
G02*
X154357337Y-81614127I-302586J-1204552D01*
G01*
%TO.C,LED6*%
X140028557Y-63483770D02*
G75*
G02*
X141910066Y-63219341I1052093J-660001D01*
G01*
X142132743Y-64803770D02*
G75*
G02*
X140238224Y-65056359I-1052093J660000D01*
G01*
%TO.C,LED32*%
X140895026Y-96136697D02*
G75*
G02*
X142159124Y-94703149I1227024J192127D01*
G01*
X143349074Y-95752443D02*
G75*
G02*
X142102562Y-97186392I-1227024J-192127D01*
G01*
%TO.C,LED34*%
X133703957Y-99653370D02*
G75*
G02*
X135598476Y-99400781I1052093J-660000D01*
G01*
X135808143Y-100973370D02*
G75*
G02*
X133926634Y-101237799I-1052093J660001D01*
G01*
%TO.C,LED9*%
X135105231Y-73683303D02*
G75*
G02*
X136195026Y-72126915I1200220J319332D01*
G01*
X137505669Y-73044637D02*
G75*
G02*
X136398343Y-74602463I-1200220J-319331D01*
G01*
%TO.C,LED30*%
X144610629Y-88437418D02*
G75*
G02*
X144161393Y-86579681I546411J1115318D01*
G01*
X145703451Y-86206782D02*
G75*
G02*
X146163102Y-88050342I-546413J-1115318D01*
G01*
%TO.C,LED24*%
X148523696Y-85013278D02*
G75*
G02*
X148009899Y-83172351I507156J1133709D01*
G01*
X149538004Y-82745862D02*
G75*
G02*
X150061714Y-84572259I-507154J-1133708D01*
G01*
%TO.C,LED55*%
X126796916Y-67409868D02*
G75*
G02*
X127599891Y-65687882I1126535J522898D01*
G01*
X129049984Y-66364072D02*
G75*
G02*
X128229994Y-68090520I-1126534J-522898D01*
G01*
%TO.C,LED8*%
X133674416Y-78013081D02*
G75*
G02*
X134069448Y-76154600I980035J762911D01*
G01*
X135634484Y-76487259D02*
G75*
G02*
X135223877Y-78353915I-980034J-762911D01*
G01*
%TO.C,LED1*%
X132672121Y-82318018D02*
G75*
G02*
X131642539Y-80707750I153529J1232448D01*
G01*
X132979179Y-79853122D02*
G75*
G02*
X134013994Y-81446596I-153530J-1232449D01*
G01*
%TO.C,LED23*%
X146443222Y-78861050D02*
G75*
G02*
X147980355Y-79977842I298340J-1205608D01*
G01*
X147039898Y-81272270D02*
G75*
G02*
X145501632Y-80137924I-298338J1205610D01*
G01*
%TO.C,LED37*%
X138204031Y-91412503D02*
G75*
G02*
X139311357Y-89854677I1200220J319331D01*
G01*
X140604469Y-90773837D02*
G75*
G02*
X139514674Y-92330225I-1200220J-319332D01*
G01*
%TO.C,LED31*%
X143316945Y-92797758D02*
G75*
G02*
X143951980Y-90995056I1065705J637788D01*
G01*
X145448355Y-91522182D02*
G75*
G02*
X144829775Y-93318668I-1065700J-637790D01*
G01*
%TO.C,LED3*%
X130261345Y-72934958D02*
G75*
G02*
X130879925Y-71138472I1065700J637790D01*
G01*
X132392755Y-71659382D02*
G75*
G02*
X131757720Y-73462084I-1065705J-637788D01*
G01*
%TO.C,LED44*%
X131897838Y-89587577D02*
G75*
G02*
X133763132Y-89170831I1105611J-565790D01*
G01*
X134109062Y-90719163D02*
G75*
G02*
X132257760Y-91146569I-1105612J565794D01*
G01*
%TO.C,LED16*%
X141600638Y-73737977D02*
G75*
G02*
X143451940Y-73310571I1105612J-565794D01*
G01*
X143811862Y-74869563D02*
G75*
G02*
X141946568Y-75286309I-1105611J565790D01*
G01*
%TO.C,TP3*%
X139786461Y-105843570D02*
G75*
G02*
X137886039Y-105843570I-950211J0D01*
G01*
X137886039Y-105843570D02*
G75*
G02*
X139786461Y-105843570I950211J0D01*
G01*
%TO.C,LED56*%
X129433669Y-63099157D02*
G75*
G02*
X130729465Y-61709585I1232980J149189D01*
G01*
X131899631Y-62800783D02*
G75*
G02*
X130586273Y-64189342I-1232984J-149186D01*
G01*
%TO.C,LED35*%
X129160948Y-99734703D02*
G75*
G02*
X131070547Y-99814931I921502J-832662D01*
G01*
X131003952Y-101400037D02*
G75*
G02*
X129105109Y-101333728I-921502J832668D01*
G01*
%TO.C,LED5*%
X135561711Y-65471322D02*
G75*
G02*
X137190328Y-64492750I1226339J-196448D01*
G01*
X138014389Y-65864218D02*
G75*
G02*
X136369170Y-66836974I-1226339J196448D01*
G01*
%TO.C,LED43*%
X135469878Y-87738183D02*
G75*
G02*
X136942669Y-86520033I1241972J-2187D01*
G01*
X137953822Y-87742557D02*
G75*
G02*
X136498338Y-88963854I-1241974J2189D01*
G01*
%TO.C,U1*%
X124918750Y-104783570D02*
X125426250Y-104783570D01*
X124918750Y-106843570D02*
X124918750Y-104783570D01*
X124918750Y-106843570D02*
X124918750Y-108903570D01*
X124918750Y-108903570D02*
X125426250Y-108903570D01*
X133838750Y-104783570D02*
X133331250Y-104783570D01*
X133838750Y-106843570D02*
X133838750Y-104783570D01*
X133838750Y-106843570D02*
X133838750Y-108903570D01*
X133838750Y-108903570D02*
X133331250Y-108903570D01*
X125426250Y-109543570D02*
X125096250Y-109783570D01*
X125096250Y-109303570D01*
X125426250Y-109543570D01*
G36*
X125426250Y-109543570D02*
G01*
X125096250Y-109783570D01*
X125096250Y-109303570D01*
X125426250Y-109543570D01*
G37*
%TO.C,LED54*%
X125601080Y-72179989D02*
G75*
G02*
X125963617Y-70314897I966571J779899D01*
G01*
X127534220Y-70620191D02*
G75*
G02*
X127156253Y-72493729I-966570J-779899D01*
G01*
%TO.C,LED42*%
X121529291Y-91987457D02*
G75*
G02*
X120726317Y-90265472I323562J1199088D01*
G01*
X122176409Y-89589283D02*
G75*
G02*
X122971865Y-91327170I-323559J-1199087D01*
G01*
%TO.C,LED41*%
X124138140Y-92502108D02*
G75*
G02*
X125751787Y-93526387I381713J-1181858D01*
G01*
X124901560Y-94865832D02*
G75*
G02*
X123290269Y-93858985I-381708J1181865D01*
G01*
%TO.C,LED50*%
X132132917Y-84728490D02*
G75*
G02*
X134027436Y-84475901I1052093J-660000D01*
G01*
X134237103Y-86048490D02*
G75*
G02*
X132355594Y-86312919I-1052093J660001D01*
G01*
%TO.C,LED18*%
X150898435Y-76060585D02*
G75*
G02*
X152194230Y-77450157I62814J-1240384D01*
G01*
X151024065Y-78541355D02*
G75*
G02*
X149730505Y-77134335I-62814J1240386D01*
G01*
%TO.C,LED22*%
X141472597Y-78408650D02*
G75*
G02*
X143354106Y-78144221I1052093J-660001D01*
G01*
X143576783Y-79728650D02*
G75*
G02*
X141682264Y-79981239I-1052093J660000D01*
G01*
%TO.C,LED10*%
X138206926Y-70352150D02*
G75*
G02*
X139852374Y-69402149I1222725J-217821D01*
G01*
X140652374Y-70787790D02*
G75*
G02*
X138990429Y-71731686I-1222724J217820D01*
G01*
%TO.C,LED51*%
X128669802Y-83184870D02*
G75*
G02*
X130208068Y-84319216I298338J-1205610D01*
G01*
X129266478Y-85596090D02*
G75*
G02*
X127729345Y-84479298I-298340J1205608D01*
G01*
%TO.C,LED11*%
X142190564Y-68524690D02*
G75*
G02*
X144061699Y-68194758I1074487J-622883D01*
G01*
X144339536Y-69770450D02*
G75*
G02*
X142454987Y-70089005I-1074487J622882D01*
G01*
%TO.C,TP1*%
X126336650Y-101075370D02*
G75*
G02*
X124836650Y-101075370I-750000J0D01*
G01*
X124836650Y-101075370D02*
G75*
G02*
X126336650Y-101075370I750000J0D01*
G01*
%TO.C,LED45*%
X127832352Y-88772836D02*
G75*
G02*
X129558800Y-89592826I522898J-1126534D01*
G01*
X128878148Y-91025904D02*
G75*
G02*
X127156162Y-90222929I-522898J1126535D01*
G01*
%TO.C,LED47*%
X122185267Y-84550721D02*
G75*
G02*
X121352363Y-82843013I302586J1204552D01*
G01*
X122790433Y-82141619D02*
G75*
G02*
X123616098Y-83865359I-302583J-1204551D01*
G01*
%TO.C,LED36*%
X140075216Y-87969881D02*
G75*
G02*
X140485823Y-86103225I980034J762911D01*
G01*
X142035284Y-86444059D02*
G75*
G02*
X141640252Y-88302540I-980035J-762911D01*
G01*
%TO.C,R6*%
X141813750Y-106330828D02*
X141813750Y-105856312D01*
X142858750Y-106330828D02*
X142858750Y-105856312D01*
%TO.C,LED25*%
X148749376Y-89365307D02*
G75*
G02*
X148662866Y-87455983I749184J990567D01*
G01*
X150247744Y-87384173D02*
G75*
G02*
X150347183Y-89281569I-749185J-990567D01*
G01*
%TO.C,LED29*%
X142730521Y-84604018D02*
G75*
G02*
X141700939Y-82993750I153529J1232448D01*
G01*
X143037579Y-82139122D02*
G75*
G02*
X144072394Y-83732596I-153530J-1232449D01*
G01*
%TO.C,LED14*%
X153533291Y-74867857D02*
G75*
G02*
X152737835Y-73129970I323559J1199087D01*
G01*
X154180409Y-72469683D02*
G75*
G02*
X154983383Y-74191668I-323562J-1199088D01*
G01*
%TD*%
M02*
