%TF.GenerationSoftware,KiCad,Pcbnew,8.0.6*%
%TF.CreationDate,2024-11-10T20:15:22+09:00*%
%TF.ProjectId,sao-petal,73616f2d-7065-4746-916c-2e6b69636164,-*%
%TF.SameCoordinates,Original*%
%TF.FileFunction,Copper,L2,Bot*%
%TF.FilePolarity,Positive*%
%FSLAX46Y46*%
G04 Gerber Fmt 4.6, Leading zero omitted, Abs format (unit mm)*
G04 Created by KiCad (PCBNEW 8.0.6) date 2024-11-10 20:15:22*
%MOMM*%
%LPD*%
G01*
G04 APERTURE LIST*
%TA.AperFunction,ComponentPad*%
%ADD10C,1.397000*%
%TD*%
%TA.AperFunction,ComponentPad*%
%ADD11O,1.700000X1.700000*%
%TD*%
%TA.AperFunction,ComponentPad*%
%ADD12C,1.066800*%
%TD*%
%TA.AperFunction,ViaPad*%
%ADD13C,0.584200*%
%TD*%
%TA.AperFunction,Conductor*%
%ADD14C,0.254000*%
%TD*%
%TA.AperFunction,Conductor*%
%ADD15C,0.203200*%
%TD*%
G04 APERTURE END LIST*
D10*
%TO.P,TP2,1,1*%
%TO.N,/INPA*%
X136336250Y-105843570D03*
%TD*%
D11*
%TO.P,J1,1*%
%TO.N,/IRQ*%
X140166250Y-110803570D03*
%TO.P,J1,2*%
%TO.N,unconnected-(J1-Pad2)*%
X140166250Y-113343570D03*
%TO.P,J1,3*%
%TO.N,/SDA*%
X137626250Y-110803570D03*
%TO.P,J1,4*%
%TO.N,/SCL*%
X137626251Y-113343570D03*
%TO.P,J1,5*%
%TO.N,VDD*%
X135086250Y-110803570D03*
%TO.P,J1,6*%
%TO.N,GND*%
X135086250Y-113343570D03*
%TD*%
D10*
%TO.P,TP3,1,1*%
%TO.N,/INPB*%
X138836250Y-105843570D03*
%TD*%
D12*
%TO.P,TP1,1,1*%
%TO.N,/IRQ*%
X125586650Y-101075370D03*
%TD*%
D13*
%TO.N,/SCL*%
X138921650Y-108314370D03*
%TO.N,/SDA*%
X124951650Y-109000170D03*
%TO.N,/A4*%
X148091050Y-86063970D03*
X143392050Y-75573770D03*
X127999650Y-101964370D03*
X130615850Y-91524970D03*
X127755060Y-78055500D03*
%TO.N,/A2*%
X128914050Y-102167570D03*
X151621650Y-79485370D03*
X122335450Y-85987770D03*
X126983650Y-73643370D03*
X129549050Y-93988770D03*
X147354450Y-94674570D03*
%TO.N,/K4*%
X132317650Y-99271970D03*
X129701450Y-107577770D03*
%TO.N,/K1*%
X126145450Y-107577770D03*
X124846250Y-79843570D03*
%TO.N,/A6*%
X140598050Y-81644370D03*
X139175650Y-86648170D03*
%TO.N,/K7*%
X132749450Y-107577770D03*
X149665850Y-73363970D03*
%TO.N,/K6*%
X131733450Y-107577770D03*
X149456250Y-78533570D03*
%TO.N,/INPA*%
X133663850Y-107933370D03*
%TO.N,/K0*%
X125129450Y-107577770D03*
X129777650Y-74481570D03*
%TO.N,/IRQ*%
X133359050Y-111057570D03*
X122462450Y-98992570D03*
%TO.N,/A3*%
X148167250Y-90381970D03*
X125281850Y-97697170D03*
X125688250Y-90000970D03*
X148853050Y-76691370D03*
X127669450Y-75294370D03*
%TO.N,/K2*%
X127161450Y-107577770D03*
X124900850Y-84692370D03*
%TO.N,/K3*%
X128177450Y-107577770D03*
X130496250Y-96983570D03*
%TO.N,/K5*%
X130717450Y-107577770D03*
X141080650Y-101659570D03*
%TO.N,/A7*%
X127161450Y-97468570D03*
X127212250Y-99094170D03*
%TO.N,/INPB*%
X134400450Y-108441370D03*
%TO.N,/A1*%
X121014650Y-81441170D03*
X152155050Y-83015970D03*
X145388550Y-98791020D03*
X128380650Y-70214370D03*
%TO.N,/A5*%
X135111650Y-91372570D03*
X133790850Y-102040570D03*
X141283850Y-76284970D03*
X143671450Y-81288770D03*
X129980850Y-82025370D03*
%TD*%
D14*
%TO.N,/SCL*%
X138921650Y-112048170D02*
X138921650Y-108314370D01*
X137626251Y-113343570D02*
X138921650Y-112048170D01*
%TO.N,/SDA*%
X136483250Y-109304970D02*
X137626250Y-110803570D01*
X124951650Y-109000170D02*
X125256450Y-109304970D01*
X125256450Y-109304970D02*
X136483250Y-109304970D01*
%TO.N,/A4*%
X143392050Y-75573770D02*
X148091050Y-80272770D01*
X127755060Y-88664180D02*
X127755060Y-78055500D01*
X127755060Y-78055500D02*
X132774850Y-78055500D01*
X132774850Y-78055500D02*
X135307380Y-75522970D01*
X127999650Y-94141170D02*
X130615850Y-91524970D01*
X148091050Y-80272770D02*
X148091050Y-86063970D01*
X127755060Y-88664180D02*
X130615850Y-91524970D01*
X135307380Y-75522970D02*
X143392050Y-75573770D01*
X127999650Y-101964370D02*
X127999650Y-94141170D01*
D15*
%TO.N,/A2*%
X126983650Y-73643370D02*
X127009050Y-73668770D01*
D14*
X122335450Y-79231370D02*
X126247050Y-75319770D01*
X122335450Y-85987770D02*
X122335450Y-79231370D01*
X149132450Y-92896570D02*
X149132450Y-88553170D01*
X151012050Y-86673570D02*
X151012050Y-80094970D01*
X128914050Y-102167570D02*
X128914059Y-102167569D01*
X149132450Y-88553170D02*
X151012050Y-86673570D01*
X126247050Y-75319770D02*
X126247050Y-74430770D01*
X129549050Y-100634540D02*
X129549050Y-93988770D01*
X151012050Y-80094970D02*
X151621650Y-79485370D01*
X146998850Y-73668770D02*
X127009050Y-73668770D01*
X151646250Y-78353570D02*
X146998850Y-73668770D01*
X129549060Y-100634540D02*
X129549050Y-100634540D01*
X126247050Y-74430770D02*
X127009050Y-73668770D01*
X151621650Y-79485370D02*
X151646250Y-78353570D01*
X147354450Y-94674570D02*
X149132450Y-92896570D01*
X129549060Y-100634540D02*
G75*
G02*
X128914045Y-102167555I-2168060J40D01*
G01*
%TO.N,/K4*%
X129701450Y-104402770D02*
X132317650Y-101786570D01*
X132317650Y-101786570D02*
X132317650Y-99271970D01*
X129701450Y-107577770D02*
X129701450Y-104402770D01*
%TO.N,/K1*%
X126145450Y-107577770D02*
X126145450Y-105164770D01*
X123859450Y-80806170D02*
X124846250Y-79843570D01*
X123859450Y-102878770D02*
X123859450Y-80806170D01*
X126145450Y-105164770D02*
X123859450Y-102878770D01*
%TO.N,/A6*%
X139175650Y-86648170D02*
X139175650Y-83066770D01*
X139175650Y-83066770D02*
X140598050Y-81644370D01*
%TO.N,/K7*%
X152155050Y-84184370D02*
X152993250Y-83346170D01*
X132749450Y-107577770D02*
X132749450Y-106841170D01*
X141487050Y-104047170D02*
X150504050Y-95030170D01*
X152993250Y-77859770D02*
X149640450Y-74506970D01*
X152993250Y-83346170D02*
X152993250Y-77859770D01*
X132749450Y-106841170D02*
X135543450Y-104047170D01*
X150504050Y-89086570D02*
X152155050Y-87435570D01*
X135543450Y-104047170D02*
X141487050Y-104047170D01*
X152155050Y-87435570D02*
X152155050Y-84184370D01*
X149640450Y-74506970D02*
X149665850Y-73363970D01*
X150504050Y-95030170D02*
X150504050Y-89086570D01*
%TO.N,/K6*%
X143874650Y-91753570D02*
X149462650Y-86165570D01*
X143874650Y-100567370D02*
X143874650Y-91753570D01*
X131733450Y-107577770D02*
X131733450Y-106942770D01*
X135187850Y-103488370D02*
X140953650Y-103488370D01*
X140953650Y-103488370D02*
X143874650Y-100567370D01*
X131733450Y-106942770D02*
X135187850Y-103488370D01*
X149462650Y-86165570D02*
X149456250Y-78533570D01*
D15*
%TO.N,/INPA*%
X135238650Y-106790370D02*
X136336250Y-105843570D01*
X133663850Y-107933370D02*
X134806850Y-106790370D01*
X134806850Y-106790370D02*
X135238650Y-106790370D01*
D14*
%TO.N,/K0*%
X126780450Y-74964170D02*
X127263050Y-74481570D01*
X127263050Y-74481570D02*
X129777650Y-74481570D01*
X126780450Y-75726170D02*
X126780450Y-74964170D01*
X123326050Y-103208970D02*
X125129450Y-105012370D01*
X125129450Y-107577770D02*
X125129450Y-105012370D01*
X123326050Y-103208970D02*
X123326050Y-79180570D01*
X123326050Y-79180570D02*
X126780450Y-75726170D01*
D15*
%TO.N,/IRQ*%
X124138850Y-105012370D02*
X124138850Y-109355770D01*
X132089050Y-109787570D02*
X133359050Y-111057570D01*
X124570650Y-109787570D02*
X132089050Y-109787570D01*
X122462450Y-98992570D02*
X122462450Y-103335970D01*
X124138850Y-109355770D02*
X124570650Y-109787570D01*
X122462450Y-103335970D02*
X124138850Y-105012370D01*
D14*
%TO.N,/A3*%
X146973450Y-74811770D02*
X148853050Y-76691370D01*
X127669450Y-75294370D02*
X134647310Y-75225310D01*
X125688250Y-90000970D02*
X125688250Y-79205970D01*
X125688250Y-79205970D02*
X127694850Y-77199370D01*
X150377050Y-78215370D02*
X148853050Y-76691370D01*
X125281850Y-97697170D02*
X125688250Y-97290770D01*
X148167250Y-88324570D02*
X150377050Y-86114770D01*
X148167250Y-90381970D02*
X148167250Y-88324570D01*
X134647310Y-75225310D02*
X135060850Y-74811770D01*
X135060850Y-74811770D02*
X146973450Y-74811770D01*
X150377050Y-86114770D02*
X150377050Y-78215370D01*
X127694850Y-77199370D02*
X127669450Y-75294370D01*
X125688250Y-97290770D02*
X125688250Y-90000970D01*
%TO.N,/K2*%
X124494450Y-85098770D02*
X124900850Y-84692370D01*
X124494450Y-102751770D02*
X127161450Y-105418770D01*
X127161450Y-107577770D02*
X127161450Y-105418770D01*
X124494450Y-102751770D02*
X124494450Y-85098770D01*
%TO.N,/K3*%
X128177450Y-105012370D02*
X130488850Y-102700970D01*
X130488850Y-102700970D02*
X130496250Y-96983570D01*
X128177450Y-107577770D02*
X128177450Y-105012370D01*
%TO.N,/K5*%
X139861450Y-102878770D02*
X141080650Y-101659570D01*
X134705250Y-102878770D02*
X139861450Y-102878770D01*
X130717450Y-107577770D02*
X130717450Y-106866570D01*
X130717450Y-106866570D02*
X134705250Y-102878770D01*
%TO.N,/A7*%
X127161450Y-97468570D02*
X127212250Y-99094170D01*
D15*
%TO.N,/INPB*%
X134400450Y-108441370D02*
X135213250Y-107628570D01*
X135213250Y-107628570D02*
X136940450Y-107628570D01*
X136940450Y-107628570D02*
X138836250Y-105843570D01*
D14*
%TO.N,/A1*%
X152434450Y-78164570D02*
X152434450Y-82685770D01*
X125688250Y-72932170D02*
X128380650Y-70214370D01*
X151621650Y-87029170D02*
X151621650Y-83498570D01*
X149792850Y-88857970D02*
X151621650Y-87029170D01*
X145388550Y-98791020D02*
X149792850Y-94386720D01*
X151621650Y-83498570D02*
X152155050Y-83015970D01*
X149792850Y-94386720D02*
X149792850Y-88857970D01*
X152434450Y-82685770D02*
X152155050Y-83015970D01*
X147354450Y-73084570D02*
X152434450Y-78164570D01*
X121014650Y-81441170D02*
X121014650Y-79688570D01*
X128380650Y-70214370D02*
X131174650Y-73084570D01*
X131174650Y-73084570D02*
X147354450Y-73084570D01*
X125688250Y-75014970D02*
X125688250Y-72932170D01*
X121014650Y-79688570D02*
X125688250Y-75014970D01*
%TO.N,/A5*%
X136610250Y-89873970D02*
X135111650Y-91372570D01*
X133765450Y-92718770D02*
X135111650Y-91372570D01*
X129980850Y-82025370D02*
X136610250Y-82025370D01*
X138159650Y-80475970D02*
X142914720Y-80475970D01*
X142914720Y-80475970D02*
X143671450Y-81288770D01*
X141283850Y-80475970D02*
X141283850Y-76284970D01*
X136610250Y-82025370D02*
X138159650Y-80475970D01*
X136610250Y-89873970D02*
X136610250Y-82025370D01*
X133790850Y-102040570D02*
X133765450Y-92718770D01*
%TD*%
M02*
