%TF.GenerationSoftware,KiCad,Pcbnew,8.0.6*%
%TF.CreationDate,2024-11-10T20:15:22+09:00*%
%TF.ProjectId,sao-petal,73616f2d-7065-4746-916c-2e6b69636164,-*%
%TF.SameCoordinates,Original*%
%TF.FileFunction,Copper,L1,Top*%
%TF.FilePolarity,Positive*%
%FSLAX46Y46*%
G04 Gerber Fmt 4.6, Leading zero omitted, Abs format (unit mm)*
G04 Created by KiCad (PCBNEW 8.0.6) date 2024-11-10 20:15:22*
%MOMM*%
%LPD*%
G01*
G04 APERTURE LIST*
G04 Aperture macros list*
%AMRoundRect*
0 Rectangle with rounded corners*
0 $1 Rounding radius*
0 $2 $3 $4 $5 $6 $7 $8 $9 X,Y pos of 4 corners*
0 Add a 4 corners polygon primitive as box body*
4,1,4,$2,$3,$4,$5,$6,$7,$8,$9,$2,$3,0*
0 Add four circle primitives for the rounded corners*
1,1,$1+$1,$2,$3*
1,1,$1+$1,$4,$5*
1,1,$1+$1,$6,$7*
1,1,$1+$1,$8,$9*
0 Add four rect primitives between the rounded corners*
20,1,$1+$1,$2,$3,$4,$5,0*
20,1,$1+$1,$4,$5,$6,$7,0*
20,1,$1+$1,$6,$7,$8,$9,0*
20,1,$1+$1,$8,$9,$2,$3,0*%
G04 Aperture macros list end*
%TA.AperFunction,SMDPad,CuDef*%
%ADD10RoundRect,0.111760X-0.363220X0.474259X-0.514433X-0.303661X0.363220X-0.474259X0.514433X0.303661X0*%
%TD*%
%TA.AperFunction,SMDPad,CuDef*%
%ADD11RoundRect,0.447040X-0.098075X0.081165X-0.121338X-0.038515X0.098075X-0.081165X0.121338X0.038515X0*%
%TD*%
%TA.AperFunction,SMDPad,CuDef*%
%ADD12RoundRect,0.111760X-0.237698X0.548043X-0.572614X-0.170188X0.237698X-0.548043X0.572614X0.170188X0*%
%TD*%
%TA.AperFunction,SMDPad,CuDef*%
%ADD13RoundRect,0.447040X-0.075526X0.102480X-0.127052X-0.008017X0.075526X-0.102480X0.127052X0.008017X0*%
%TD*%
%TA.AperFunction,ComponentPad*%
%ADD14C,1.397000*%
%TD*%
%TA.AperFunction,SMDPad,CuDef*%
%ADD15RoundRect,0.111760X0.109401X0.587267X-0.569887X0.179109X-0.109401X-0.587267X0.569887X-0.179109X0*%
%TD*%
%TA.AperFunction,SMDPad,CuDef*%
%ADD16RoundRect,0.447040X-0.005308X0.127194X-0.109814X0.064400X0.005308X-0.127194X0.109814X-0.064400X0*%
%TD*%
%TA.AperFunction,SMDPad,CuDef*%
%ADD17RoundRect,0.111760X0.387543X-0.454600X0.497835X0.330168X-0.387543X0.454600X-0.497835X-0.330168X0*%
%TD*%
%TA.AperFunction,SMDPad,CuDef*%
%ADD18RoundRect,0.447040X0.102188X-0.075921X0.119156X0.044813X-0.102188X0.075921X-0.119156X-0.044813X0*%
%TD*%
%TA.AperFunction,SMDPad,CuDef*%
%ADD19RoundRect,0.111760X0.597179X0.015089X0.056709X0.594672X-0.597179X-0.015089X-0.056709X-0.594672X0*%
%TD*%
%TA.AperFunction,SMDPad,CuDef*%
%ADD20RoundRect,0.447040X0.123311X0.031637X0.040161X0.120803X-0.123311X-0.031637X-0.040161X-0.120803X0*%
%TD*%
%TA.AperFunction,SMDPad,CuDef*%
%ADD21RoundRect,0.111760X0.453887X-0.388378X0.440057X0.403982X-0.453887X0.388378X-0.440057X-0.403982X0*%
%TD*%
%TA.AperFunction,SMDPad,CuDef*%
%ADD22RoundRect,0.447040X0.112807X-0.059000X0.110679X0.062901X-0.112807X0.059000X-0.110679X-0.062901X0*%
%TD*%
%TA.AperFunction,SMDPad,CuDef*%
%ADD23RoundRect,0.111760X-0.453887X0.388378X-0.440057X-0.403982X0.453887X-0.388378X0.440057X0.403982X0*%
%TD*%
%TA.AperFunction,SMDPad,CuDef*%
%ADD24RoundRect,0.447040X-0.112807X0.059000X-0.110679X-0.062901X0.112807X-0.059000X0.110679X0.062901X0*%
%TD*%
%TA.AperFunction,SMDPad,CuDef*%
%ADD25RoundRect,0.111760X-0.403982X-0.440057X0.388378X-0.453887X0.403982X0.440057X-0.388378X0.453887X0*%
%TD*%
%TA.AperFunction,SMDPad,CuDef*%
%ADD26RoundRect,0.447040X-0.062901X-0.110679X0.059000X-0.112807X0.062901X0.110679X-0.059000X0.112807X0*%
%TD*%
%TA.AperFunction,SMDPad,CuDef*%
%ADD27RoundRect,0.111760X-0.498441X-0.329253X0.267036X-0.534362X0.498441X0.329253X-0.267036X0.534362X0*%
%TD*%
%TA.AperFunction,SMDPad,CuDef*%
%ADD28RoundRect,0.447040X-0.087808X-0.092174X0.029957X-0.123729X0.087808X0.092174X-0.029957X0.123729X0*%
%TD*%
%TA.AperFunction,SMDPad,CuDef*%
%ADD29O,0.838200X1.676400*%
%TD*%
%TA.AperFunction,SMDPad,CuDef*%
%ADD30RoundRect,0.167640X0.251460X-0.670560X0.251460X0.670560X-0.251460X0.670560X-0.251460X-0.670560X0*%
%TD*%
%TA.AperFunction,SMDPad,CuDef*%
%ADD31RoundRect,0.111760X0.467165X-0.372301X0.425690X0.419093X-0.467165X0.372301X-0.425690X-0.419093X0*%
%TD*%
%TA.AperFunction,SMDPad,CuDef*%
%ADD32RoundRect,0.447040X0.114797X-0.055027X0.108416X0.066726X-0.114797X0.055027X-0.108416X-0.066726X0*%
%TD*%
%TA.AperFunction,SMDPad,CuDef*%
%ADD33RoundRect,0.111760X0.312593X0.509055X-0.467848X0.371442X-0.312593X-0.509055X0.467848X-0.371442X0*%
%TD*%
%TA.AperFunction,SMDPad,CuDef*%
%ADD34RoundRect,0.447040X0.040627X0.120648X-0.079441X0.099477X-0.040627X-0.120648X0.079441X-0.099477X0*%
%TD*%
%TA.AperFunction,SMDPad,CuDef*%
%ADD35RoundRect,0.111760X-0.548043X-0.237698X0.170188X-0.572614X0.548043X0.237698X-0.170188X0.572614X0*%
%TD*%
%TA.AperFunction,SMDPad,CuDef*%
%ADD36RoundRect,0.447040X-0.102480X-0.075526X0.008017X-0.127052X0.102480X0.075526X-0.008017X0.127052X0*%
%TD*%
%TA.AperFunction,SMDPad,CuDef*%
%ADD37RoundRect,0.111760X0.119634X0.585268X-0.566674X0.189028X-0.119634X-0.585268X0.566674X-0.189028X0*%
%TD*%
%TA.AperFunction,SMDPad,CuDef*%
%ADD38RoundRect,0.447040X-0.003087X0.127267X-0.108673X0.066307X0.003087X-0.127267X0.108673X-0.066307X0*%
%TD*%
%TA.AperFunction,SMDPad,CuDef*%
%ADD39RoundRect,0.111760X0.529620X-0.276321X0.337902X0.492619X-0.529620X0.276321X-0.337902X-0.492619X0*%
%TD*%
%TA.AperFunction,SMDPad,CuDef*%
%ADD40RoundRect,0.447040X0.123188X-0.032112X0.093693X0.086186X-0.123188X0.032112X-0.093693X-0.086186X0*%
%TD*%
%TA.AperFunction,SMDPad,CuDef*%
%ADD41RoundRect,0.111760X-0.387543X0.454600X-0.497835X-0.330168X0.387543X-0.454600X0.497835X0.330168X0*%
%TD*%
%TA.AperFunction,SMDPad,CuDef*%
%ADD42RoundRect,0.447040X-0.102188X0.075921X-0.119156X-0.044813X0.102188X-0.075921X0.119156X0.044813X0*%
%TD*%
%TA.AperFunction,SMDPad,CuDef*%
%ADD43RoundRect,0.111760X0.498441X0.329253X-0.267036X0.534362X-0.498441X-0.329253X0.267036X-0.534362X0*%
%TD*%
%TA.AperFunction,SMDPad,CuDef*%
%ADD44RoundRect,0.447040X0.087808X0.092174X-0.029957X0.123729X-0.087808X-0.092174X0.029957X-0.123729X0*%
%TD*%
%TA.AperFunction,SMDPad,CuDef*%
%ADD45RoundRect,0.111760X0.077429X-0.592331X0.597342X0.005761X-0.077429X0.592331X-0.597342X-0.005761X0*%
%TD*%
%TA.AperFunction,SMDPad,CuDef*%
%ADD46RoundRect,0.447040X0.044353X-0.119328X0.124340X-0.027314X-0.044353X0.119328X-0.124340X0.027314X0*%
%TD*%
%TA.AperFunction,SMDPad,CuDef*%
%ADD47RoundRect,0.111760X-0.572926X-0.169136X0.099135X-0.589087X0.572926X0.169136X-0.099135X0.589087X0*%
%TD*%
%TA.AperFunction,SMDPad,CuDef*%
%ADD48RoundRect,0.447040X-0.110921X-0.062474X-0.007527X-0.127082X0.110921X0.062474X0.007527X0.127082X0*%
%TD*%
%TA.AperFunction,ComponentPad*%
%ADD49O,1.700000X1.700000*%
%TD*%
%TA.AperFunction,SMDPad,CuDef*%
%ADD50RoundRect,0.237500X-0.262500X0.237500X-0.262500X-0.237500X0.262500X-0.237500X0.262500X0.237500X0*%
%TD*%
%TA.AperFunction,SMDPad,CuDef*%
%ADD51RoundRect,0.111760X0.534362X-0.267036X0.329253X0.498441X-0.534362X0.267036X-0.329253X-0.498441X0*%
%TD*%
%TA.AperFunction,SMDPad,CuDef*%
%ADD52RoundRect,0.447040X0.123729X-0.029957X0.092174X0.087808X-0.123729X0.029957X-0.092174X-0.087808X0*%
%TD*%
%TA.AperFunction,SMDPad,CuDef*%
%ADD53RoundRect,0.111760X-0.056709X0.594672X-0.597179X0.015089X0.056709X-0.594672X0.597179X-0.015089X0*%
%TD*%
%TA.AperFunction,SMDPad,CuDef*%
%ADD54RoundRect,0.447040X-0.040161X0.120803X-0.123311X0.031637X0.040161X-0.120803X0.123311X-0.031637X0*%
%TD*%
%TA.AperFunction,SMDPad,CuDef*%
%ADD55RoundRect,0.111760X-0.016186X-0.597151X0.590889X-0.087754X0.016186X0.597151X-0.590889X0.087754X0*%
%TD*%
%TA.AperFunction,SMDPad,CuDef*%
%ADD56RoundRect,0.447040X0.025140X-0.124797X0.118536X-0.046429X-0.025140X0.124797X-0.118536X0.046429X0*%
%TD*%
%TA.AperFunction,SMDPad,CuDef*%
%ADD57RoundRect,0.111760X-0.575497X0.160169X-0.228097X-0.552108X0.575497X-0.160169X0.228097X0.552108X0*%
%TD*%
%TA.AperFunction,SMDPad,CuDef*%
%ADD58RoundRect,0.447040X-0.127172X0.005798X-0.073726X-0.103783X0.127172X-0.005798X0.073726X0.103783X0*%
%TD*%
%TA.AperFunction,SMDPad,CuDef*%
%ADD59RoundRect,0.111760X-0.330168X-0.497835X0.454600X-0.387543X0.330168X0.497835X-0.454600X0.387543X0*%
%TD*%
%TA.AperFunction,SMDPad,CuDef*%
%ADD60RoundRect,0.447040X-0.044813X-0.119156X0.075921X-0.102188X0.044813X0.119156X-0.075921X0.102188X0*%
%TD*%
%TA.AperFunction,SMDPad,CuDef*%
%ADD61RoundRect,0.111760X-0.077429X0.592331X-0.597342X-0.005761X0.077429X-0.592331X0.597342X0.005761X0*%
%TD*%
%TA.AperFunction,SMDPad,CuDef*%
%ADD62RoundRect,0.447040X-0.044353X0.119328X-0.124340X0.027314X0.044353X-0.119328X0.124340X-0.027314X0*%
%TD*%
%TA.AperFunction,SMDPad,CuDef*%
%ADD63RoundRect,0.111760X0.330168X0.497835X-0.454600X0.387543X-0.330168X-0.497835X0.454600X-0.387543X0*%
%TD*%
%TA.AperFunction,SMDPad,CuDef*%
%ADD64RoundRect,0.447040X0.044813X0.119156X-0.075921X0.102188X-0.044813X-0.119156X0.075921X-0.102188X0*%
%TD*%
%TA.AperFunction,SMDPad,CuDef*%
%ADD65RoundRect,0.111760X0.138920X-0.580992X0.593468X0.068169X-0.138920X0.580992X-0.593468X-0.068169X0*%
%TD*%
%TA.AperFunction,SMDPad,CuDef*%
%ADD66RoundRect,0.447040X0.056583X-0.114038X0.126514X-0.014167X-0.056583X0.114038X-0.126514X0.014167X0*%
%TD*%
%TA.AperFunction,SMDPad,CuDef*%
%ADD67RoundRect,0.111760X-0.529620X0.276321X-0.337902X-0.492619X0.529620X-0.276321X0.337902X0.492619X0*%
%TD*%
%TA.AperFunction,SMDPad,CuDef*%
%ADD68RoundRect,0.447040X-0.123188X0.032112X-0.093693X-0.086186X0.123188X-0.032112X0.093693X0.086186X0*%
%TD*%
%TA.AperFunction,SMDPad,CuDef*%
%ADD69RoundRect,0.111760X-0.538941X0.257669X-0.320504X-0.504111X0.538941X-0.257669X0.320504X0.504111X0*%
%TD*%
%TA.AperFunction,SMDPad,CuDef*%
%ADD70RoundRect,0.447040X-0.124233X0.027793X-0.090628X-0.089404X0.124233X-0.027793X0.090628X0.089404X0*%
%TD*%
%TA.AperFunction,SMDPad,CuDef*%
%ADD71RoundRect,0.111760X0.237698X-0.548043X0.572614X0.170188X-0.237698X0.548043X-0.572614X-0.170188X0*%
%TD*%
%TA.AperFunction,SMDPad,CuDef*%
%ADD72RoundRect,0.447040X0.075526X-0.102480X0.127052X0.008017X-0.075526X0.102480X-0.127052X-0.008017X0*%
%TD*%
%TA.AperFunction,SMDPad,CuDef*%
%ADD73RoundRect,0.111760X0.354888X-0.480526X0.519654X0.294636X-0.354888X0.480526X-0.519654X-0.294636X0*%
%TD*%
%TA.AperFunction,SMDPad,CuDef*%
%ADD74RoundRect,0.447040X0.096643X-0.082864X0.121992X0.036392X-0.096643X0.082864X-0.121992X-0.036392X0*%
%TD*%
%TA.AperFunction,SMDPad,CuDef*%
%ADD75RoundRect,0.111760X-0.590727X0.088839X-0.159112X-0.575790X0.590727X-0.088839X0.159112X0.575790X0*%
%TD*%
%TA.AperFunction,SMDPad,CuDef*%
%ADD76RoundRect,0.447040X-0.126931X-0.009744X-0.060529X-0.111994X0.126931X0.009744X0.060529X0.111994X0*%
%TD*%
%TA.AperFunction,SMDPad,CuDef*%
%ADD77RoundRect,0.111760X-0.583328X-0.128759X0.057801X-0.594567X0.583328X0.128759X-0.057801X0.594567X0*%
%TD*%
%TA.AperFunction,SMDPad,CuDef*%
%ADD78RoundRect,0.447040X-0.115009X-0.054584X-0.016373X-0.126247X0.115009X0.054584X0.016373X0.126247X0*%
%TD*%
%TA.AperFunction,SMDPad,CuDef*%
%ADD79RoundRect,0.111760X-0.138920X0.580992X-0.593468X-0.068169X0.138920X-0.580992X0.593468X0.068169X0*%
%TD*%
%TA.AperFunction,SMDPad,CuDef*%
%ADD80RoundRect,0.447040X-0.056583X0.114038X-0.126514X0.014167X0.056583X-0.114038X0.126514X-0.014167X0*%
%TD*%
%TA.AperFunction,SMDPad,CuDef*%
%ADD81RoundRect,0.111760X-0.293681X0.520194X-0.551688X-0.229110X0.293681X-0.520194X0.551688X0.229110X0*%
%TD*%
%TA.AperFunction,SMDPad,CuDef*%
%ADD82RoundRect,0.447040X-0.085825X0.094024X-0.125518X-0.021253X0.085825X-0.094024X0.125518X0.021253X0*%
%TD*%
%TA.AperFunction,SMDPad,CuDef*%
%ADD83RoundRect,0.111760X0.293681X-0.520194X0.551688X0.229110X-0.293681X0.520194X-0.551688X-0.229110X0*%
%TD*%
%TA.AperFunction,SMDPad,CuDef*%
%ADD84RoundRect,0.447040X0.085825X-0.094024X0.125518X0.021253X-0.085825X0.094024X-0.125518X-0.021253X0*%
%TD*%
%TA.AperFunction,SMDPad,CuDef*%
%ADD85RoundRect,0.111760X0.285522X0.524717X-0.486647X0.346448X-0.285522X-0.524717X0.486647X-0.346448X0*%
%TD*%
%TA.AperFunction,SMDPad,CuDef*%
%ADD86RoundRect,0.447040X0.034257X0.122609X-0.084538X0.095183X-0.034257X-0.122609X0.084538X-0.095183X0*%
%TD*%
%TA.AperFunction,SMDPad,CuDef*%
%ADD87RoundRect,0.111760X-0.285522X-0.524717X0.486647X-0.346448X0.285522X0.524717X-0.486647X0.346448X0*%
%TD*%
%TA.AperFunction,SMDPad,CuDef*%
%ADD88RoundRect,0.447040X-0.034257X-0.122609X0.084538X-0.095183X0.034257X0.122609X-0.084538X0.095183X0*%
%TD*%
%TA.AperFunction,SMDPad,CuDef*%
%ADD89RoundRect,0.111760X0.056709X-0.594672X0.597179X-0.015089X-0.056709X0.594672X-0.597179X0.015089X0*%
%TD*%
%TA.AperFunction,SMDPad,CuDef*%
%ADD90RoundRect,0.447040X0.040161X-0.120803X0.123311X-0.031637X-0.040161X0.120803X-0.123311X0.031637X0*%
%TD*%
%TA.AperFunction,SMDPad,CuDef*%
%ADD91RoundRect,0.111760X0.411600X0.432939X-0.380397X0.460596X-0.411600X-0.432939X0.380397X-0.460596X0*%
%TD*%
%TA.AperFunction,SMDPad,CuDef*%
%ADD92RoundRect,0.447040X0.064823X0.109564X-0.057022X0.113819X-0.064823X-0.109564X0.057022X-0.113819X0*%
%TD*%
%TA.AperFunction,SMDPad,CuDef*%
%ADD93RoundRect,0.111760X-0.109401X-0.587267X0.569887X-0.179109X0.109401X0.587267X-0.569887X0.179109X0*%
%TD*%
%TA.AperFunction,SMDPad,CuDef*%
%ADD94RoundRect,0.447040X0.005308X-0.127194X0.109814X-0.064400X-0.005308X0.127194X-0.109814X0.064400X0*%
%TD*%
%TA.AperFunction,SMDPad,CuDef*%
%ADD95RoundRect,0.111760X0.016186X0.597151X-0.590889X0.087754X-0.016186X-0.597151X0.590889X-0.087754X0*%
%TD*%
%TA.AperFunction,SMDPad,CuDef*%
%ADD96RoundRect,0.447040X-0.025140X0.124797X-0.118536X0.046429X0.025140X-0.124797X0.118536X-0.046429X0*%
%TD*%
%TA.AperFunction,SMDPad,CuDef*%
%ADD97R,0.360000X1.750000*%
%TD*%
%TA.AperFunction,SMDPad,CuDef*%
%ADD98RoundRect,0.090000X0.090000X-0.785000X0.090000X0.785000X-0.090000X0.785000X-0.090000X-0.785000X0*%
%TD*%
%TA.AperFunction,SMDPad,CuDef*%
%ADD99RoundRect,0.111760X0.363220X-0.474259X0.514433X0.303661X-0.363220X0.474259X-0.514433X-0.303661X0*%
%TD*%
%TA.AperFunction,SMDPad,CuDef*%
%ADD100RoundRect,0.447040X0.098075X-0.081165X0.121338X0.038515X-0.098075X0.081165X-0.121338X-0.038515X0*%
%TD*%
%TA.AperFunction,SMDPad,CuDef*%
%ADD101RoundRect,0.111760X0.572614X-0.170188X0.237698X0.548043X-0.572614X0.170188X-0.237698X-0.548043X0*%
%TD*%
%TA.AperFunction,SMDPad,CuDef*%
%ADD102RoundRect,0.447040X0.127052X-0.008017X0.075526X0.102480X-0.127052X0.008017X-0.075526X-0.102480X0*%
%TD*%
%TA.AperFunction,SMDPad,CuDef*%
%ADD103RoundRect,0.111760X0.572926X0.169136X-0.099135X0.589087X-0.572926X-0.169136X0.099135X-0.589087X0*%
%TD*%
%TA.AperFunction,SMDPad,CuDef*%
%ADD104RoundRect,0.447040X0.110921X0.062474X0.007527X0.127082X-0.110921X-0.062474X-0.007527X-0.127082X0*%
%TD*%
%TA.AperFunction,SMDPad,CuDef*%
%ADD105RoundRect,0.111760X-0.597179X-0.015089X-0.056709X-0.594672X0.597179X0.015089X0.056709X0.594672X0*%
%TD*%
%TA.AperFunction,SMDPad,CuDef*%
%ADD106RoundRect,0.447040X-0.123311X-0.031637X-0.040161X-0.120803X0.123311X0.031637X0.040161X0.120803X0*%
%TD*%
%TA.AperFunction,SMDPad,CuDef*%
%ADD107RoundRect,0.111760X-0.119634X-0.585268X0.566674X-0.189028X0.119634X0.585268X-0.566674X0.189028X0*%
%TD*%
%TA.AperFunction,SMDPad,CuDef*%
%ADD108RoundRect,0.447040X0.003087X-0.127267X0.108673X-0.066307X-0.003087X0.127267X-0.108673X0.066307X0*%
%TD*%
%TA.AperFunction,SMDPad,CuDef*%
%ADD109RoundRect,0.111760X0.583328X0.128759X-0.057801X0.594567X-0.583328X-0.128759X0.057801X-0.594567X0*%
%TD*%
%TA.AperFunction,SMDPad,CuDef*%
%ADD110RoundRect,0.447040X0.115009X0.054584X0.016373X0.126247X-0.115009X-0.054584X-0.016373X-0.126247X0*%
%TD*%
%TA.AperFunction,SMDPad,CuDef*%
%ADD111RoundRect,0.111760X-0.312593X-0.509055X0.467848X-0.371442X0.312593X0.509055X-0.467848X0.371442X0*%
%TD*%
%TA.AperFunction,SMDPad,CuDef*%
%ADD112RoundRect,0.447040X-0.040627X-0.120648X0.079441X-0.099477X0.040627X0.120648X-0.079441X0.099477X0*%
%TD*%
%TA.AperFunction,ComponentPad*%
%ADD113C,1.066800*%
%TD*%
%TA.AperFunction,SMDPad,CuDef*%
%ADD114RoundRect,0.111760X0.548043X0.237698X-0.170188X0.572614X-0.548043X-0.237698X0.170188X-0.572614X0*%
%TD*%
%TA.AperFunction,SMDPad,CuDef*%
%ADD115RoundRect,0.447040X0.102480X0.075526X-0.008017X0.127052X-0.102480X-0.075526X0.008017X-0.127052X0*%
%TD*%
%TA.AperFunction,SMDPad,CuDef*%
%ADD116RoundRect,0.111760X0.575497X-0.160169X0.228097X0.552108X-0.575497X0.160169X-0.228097X-0.552108X0*%
%TD*%
%TA.AperFunction,SMDPad,CuDef*%
%ADD117RoundRect,0.447040X0.127172X-0.005798X0.073726X0.103783X-0.127172X0.005798X-0.073726X-0.103783X0*%
%TD*%
%TA.AperFunction,SMDPad,CuDef*%
%ADD118RoundRect,0.111760X-0.354888X0.480526X-0.519654X-0.294636X0.354888X-0.480526X0.519654X0.294636X0*%
%TD*%
%TA.AperFunction,SMDPad,CuDef*%
%ADD119RoundRect,0.447040X-0.096643X0.082864X-0.121992X-0.036392X0.096643X-0.082864X0.121992X0.036392X0*%
%TD*%
%TA.AperFunction,SMDPad,CuDef*%
%ADD120RoundRect,0.111760X-0.467165X0.372301X-0.425690X-0.419093X0.467165X-0.372301X0.425690X0.419093X0*%
%TD*%
%TA.AperFunction,SMDPad,CuDef*%
%ADD121RoundRect,0.447040X-0.114797X0.055027X-0.108416X-0.066726X0.114797X-0.055027X0.108416X0.066726X0*%
%TD*%
%TA.AperFunction,SMDPad,CuDef*%
%ADD122RoundRect,0.111760X-0.572614X0.170188X-0.237698X-0.548043X0.572614X-0.170188X0.237698X0.548043X0*%
%TD*%
%TA.AperFunction,SMDPad,CuDef*%
%ADD123RoundRect,0.447040X-0.127052X0.008017X-0.075526X-0.102480X0.127052X-0.008017X0.075526X0.102480X0*%
%TD*%
%TA.AperFunction,ViaPad*%
%ADD124C,0.584200*%
%TD*%
%TA.AperFunction,Conductor*%
%ADD125C,0.203200*%
%TD*%
%TA.AperFunction,Conductor*%
%ADD126C,0.457200*%
%TD*%
%TA.AperFunction,Conductor*%
%ADD127C,0.355600*%
%TD*%
%TA.AperFunction,Conductor*%
%ADD128C,0.254000*%
%TD*%
%TA.AperFunction,Conductor*%
%ADD129C,0.245000*%
%TD*%
G04 APERTURE END LIST*
D10*
%TO.P,LED26,1,K*%
%TO.N,/K5*%
X149335912Y-92059717D03*
D11*
%TO.P,LED26,2,A*%
%TO.N,/A2*%
X148948188Y-94054383D03*
%TD*%
D12*
%TO.P,LED27,1,K*%
%TO.N,/K5*%
X148215630Y-96649361D03*
D13*
%TO.P,LED27,2,A*%
%TO.N,/A1*%
X147356870Y-98490979D03*
%TD*%
D14*
%TO.P,TP2,1,1*%
%TO.N,/INPA*%
X136336250Y-105843570D03*
%TD*%
D15*
%TO.P,LED33,1,K*%
%TO.N,/K4*%
X139792532Y-98266091D03*
D16*
%TO.P,LED33,2,A*%
%TO.N,/A2*%
X138050768Y-99312649D03*
%TD*%
D17*
%TO.P,LED49,1,K*%
%TO.N,/K2*%
X121559050Y-75411482D03*
D18*
%TO.P,LED49,2,A*%
%TO.N,/A0*%
X121841850Y-73399258D03*
%TD*%
D19*
%TO.P,LED46,1,K*%
%TO.N,/K2*%
X125593760Y-87899225D03*
D20*
%TO.P,LED46,2,A*%
%TO.N,/A3*%
X124207940Y-86413115D03*
%TD*%
D21*
%TO.P,LED48,1,K*%
%TO.N,/K2*%
X121540382Y-79993215D03*
D22*
%TO.P,LED48,2,A*%
%TO.N,/A1*%
X121504918Y-77961525D03*
%TD*%
D23*
%TO.P,LED20,1,K*%
%TO.N,/K6*%
X154169318Y-84489325D03*
D24*
%TO.P,LED20,2,A*%
%TO.N,/A1*%
X154204782Y-86521015D03*
%TD*%
D25*
%TO.P,LED7,1,K*%
%TO.N,/K0*%
X144611405Y-63745038D03*
D26*
%TO.P,LED7,2,A*%
%TO.N,/A0*%
X146643095Y-63780502D03*
%TD*%
D27*
%TO.P,LED12,1,K*%
%TO.N,/K7*%
X146347669Y-68960810D03*
D28*
%TO.P,LED12,2,A*%
%TO.N,/A2*%
X148310431Y-69486730D03*
%TD*%
D29*
%TO.P,LED57,1,K*%
%TO.N,/K1*%
X136238140Y-84678350D03*
D30*
%TO.P,LED57,2,A*%
%TO.N,/A7*%
X136238140Y-79778350D03*
D29*
%TO.P,LED57,3,K*%
%TO.N,/K2*%
X137838140Y-84678350D03*
D30*
%TO.P,LED57,4,A*%
%TO.N,/A7*%
X137838140Y-79778350D03*
D29*
%TO.P,LED57,5,K*%
%TO.N,/K3*%
X139438140Y-84678350D03*
D30*
%TO.P,LED57,6,A*%
%TO.N,/A7*%
X139438140Y-79778350D03*
%TD*%
D31*
%TO.P,LED53,1,K*%
%TO.N,/K1*%
X126264313Y-77097008D03*
D32*
%TO.P,LED53,2,A*%
%TO.N,/A3*%
X126157967Y-75067792D03*
%TD*%
D33*
%TO.P,LED39,1,K*%
%TO.N,/K3*%
X133445215Y-95133143D03*
D34*
%TO.P,LED39,2,A*%
%TO.N,/A3*%
X131444085Y-95485997D03*
%TD*%
D35*
%TO.P,LED17,1,K*%
%TO.N,/K6*%
X146433641Y-74382390D03*
D36*
%TO.P,LED17,2,A*%
%TO.N,/A4*%
X148275259Y-75241150D03*
%TD*%
D37*
%TO.P,LED38,1,K*%
%TO.N,/K3*%
X137159932Y-93379170D03*
D38*
%TO.P,LED38,2,A*%
%TO.N,/A4*%
X135400168Y-94395170D03*
%TD*%
D39*
%TO.P,LED2,1,K*%
%TO.N,/K0*%
X130789603Y-78121240D03*
D40*
%TO.P,LED2,2,A*%
%TO.N,/A5*%
X130298017Y-76149600D03*
%TD*%
D41*
%TO.P,LED21,1,K*%
%TO.N,/K6*%
X154150650Y-89299658D03*
D42*
%TO.P,LED21,2,A*%
%TO.N,/A0*%
X153867850Y-91311882D03*
%TD*%
D43*
%TO.P,LED40,1,K*%
%TO.N,/K3*%
X129362031Y-95496330D03*
D44*
%TO.P,LED40,2,A*%
%TO.N,/A2*%
X127399269Y-94970410D03*
%TD*%
D45*
%TO.P,LED4,1,K*%
%TO.N,/K0*%
X132921094Y-69279355D03*
D46*
%TO.P,LED4,2,A*%
%TO.N,/A3*%
X134254206Y-67745785D03*
%TD*%
D47*
%TO.P,LED13,1,K*%
%TO.N,/K7*%
X150328233Y-70234772D03*
D48*
%TO.P,LED13,2,A*%
%TO.N,/A1*%
X152051467Y-71311568D03*
%TD*%
D49*
%TO.P,J1,1*%
%TO.N,/IRQ*%
X140166250Y-110803570D03*
%TO.P,J1,2*%
%TO.N,unconnected-(J1-Pad2)*%
X140166250Y-113343570D03*
%TO.P,J1,3*%
%TO.N,/SDA*%
X137626250Y-110803570D03*
%TO.P,J1,4*%
%TO.N,/SCL*%
X137626251Y-113343570D03*
%TO.P,J1,5*%
%TO.N,VDD*%
X135086250Y-110803570D03*
%TO.P,J1,6*%
%TO.N,GND*%
X135086250Y-113343570D03*
%TD*%
D50*
%TO.P,C1,1*%
%TO.N,VDD*%
X123836250Y-101893570D03*
%TO.P,C1,2*%
%TO.N,GND*%
X123836250Y-100243570D03*
%TD*%
D51*
%TO.P,LED52,1,K*%
%TO.N,/K1*%
X126992610Y-81558951D03*
D52*
%TO.P,LED52,2,A*%
%TO.N,/A4*%
X126466690Y-79596189D03*
%TD*%
D53*
%TO.P,LED28,1,K*%
%TO.N,/K5*%
X145735960Y-100764115D03*
D54*
%TO.P,LED28,2,A*%
%TO.N,/A0*%
X144350140Y-102250225D03*
%TD*%
D55*
%TO.P,LED15,1,K*%
%TO.N,/K6*%
X138219549Y-77369842D03*
D56*
%TO.P,LED15,2,A*%
%TO.N,/A6*%
X139776151Y-76063698D03*
%TD*%
D57*
%TO.P,LED19,1,K*%
%TO.N,/K6*%
X152776465Y-80197795D03*
D58*
%TO.P,LED19,2,A*%
%TO.N,/A2*%
X153667235Y-82024145D03*
%TD*%
D59*
%TO.P,LED6,1,K*%
%TO.N,/K0*%
X140074538Y-64285170D03*
D60*
%TO.P,LED6,2,A*%
%TO.N,/A1*%
X142086762Y-64002370D03*
%TD*%
D61*
%TO.P,LED32,1,K*%
%TO.N,/K4*%
X142788606Y-95177785D03*
D62*
%TO.P,LED32,2,A*%
%TO.N,/A3*%
X141455494Y-96711355D03*
%TD*%
D63*
%TO.P,LED34,1,K*%
%TO.N,/K4*%
X135762162Y-100171970D03*
D64*
%TO.P,LED34,2,A*%
%TO.N,/A1*%
X133749938Y-100454770D03*
%TD*%
D65*
%TO.P,LED9,1,K*%
%TO.N,/K7*%
X135722696Y-74196228D03*
D66*
%TO.P,LED9,2,A*%
%TO.N,/A5*%
X136888204Y-72531712D03*
%TD*%
D67*
%TO.P,LED30,1,K*%
%TO.N,/K4*%
X144911247Y-86336280D03*
D68*
%TO.P,LED30,2,A*%
%TO.N,/A5*%
X145402833Y-88307920D03*
%TD*%
D69*
%TO.P,LED24,1,K*%
%TO.N,/K5*%
X148750802Y-82902928D03*
D70*
%TO.P,LED24,2,A*%
%TO.N,/A4*%
X149310898Y-84856212D03*
%TD*%
D71*
%TO.P,LED55,1,K*%
%TO.N,/K1*%
X127494070Y-67807779D03*
D72*
%TO.P,LED55,2,A*%
%TO.N,/A1*%
X128352830Y-65966161D03*
%TD*%
D73*
%TO.P,LED8,1,K*%
%TO.N,/K7*%
X134443212Y-78243968D03*
D74*
%TO.P,LED8,2,A*%
%TO.N,/A6*%
X134865688Y-76256372D03*
%TD*%
D75*
%TO.P,LED1,1,A*%
%TO.N,/A6*%
X132272297Y-80233481D03*
D76*
%TO.P,LED1,2,K*%
%TO.N,/K0*%
X133379003Y-81937659D03*
%TD*%
D77*
%TO.P,LED23,1,K*%
%TO.N,/K5*%
X145919599Y-79469470D03*
D78*
%TO.P,LED23,2,A*%
%TO.N,/A5*%
X147563521Y-80663850D03*
%TD*%
D79*
%TO.P,LED37,1,K*%
%TO.N,/K3*%
X139987004Y-90260912D03*
D80*
%TO.P,LED37,2,A*%
%TO.N,/A5*%
X138821496Y-91925428D03*
%TD*%
D81*
%TO.P,LED31,1,K*%
%TO.N,/K4*%
X144713427Y-91199323D03*
D82*
%TO.P,LED31,2,A*%
%TO.N,/A4*%
X144051873Y-93120617D03*
%TD*%
D83*
%TO.P,LED3,1,K*%
%TO.N,/K0*%
X130996273Y-73257817D03*
D84*
%TO.P,LED3,2,A*%
%TO.N,/A4*%
X131657827Y-71336523D03*
%TD*%
D85*
%TO.P,LED44,1,K*%
%TO.N,/K2*%
X133993410Y-89924820D03*
D86*
%TO.P,LED44,2,A*%
%TO.N,/A5*%
X132013490Y-90381920D03*
%TD*%
D87*
%TO.P,LED16,1,K*%
%TO.N,/K6*%
X141716290Y-74532320D03*
D88*
%TO.P,LED16,2,A*%
%TO.N,/A5*%
X143696210Y-74075220D03*
%TD*%
D14*
%TO.P,TP3,1,1*%
%TO.N,/INPB*%
X138836250Y-105843570D03*
%TD*%
D89*
%TO.P,LED56,1,K*%
%TO.N,/K1*%
X129973740Y-63693025D03*
D90*
%TO.P,LED56,2,A*%
%TO.N,/A0*%
X131359560Y-62206915D03*
%TD*%
D91*
%TO.P,LED35,1,K*%
%TO.N,/K4*%
X131097831Y-100602828D03*
D92*
%TO.P,LED35,2,A*%
%TO.N,/A0*%
X129067069Y-100531912D03*
%TD*%
D93*
%TO.P,LED5,1,K*%
%TO.N,/K0*%
X135917168Y-66191049D03*
D94*
%TO.P,LED5,2,A*%
%TO.N,/A2*%
X137658932Y-65144491D03*
%TD*%
D95*
%TO.P,LED43,1,K*%
%TO.N,/K2*%
X137490151Y-87087298D03*
D96*
%TO.P,LED43,2,A*%
%TO.N,/A6*%
X135933549Y-88393442D03*
%TD*%
D97*
%TO.P,U1,1,SDA*%
%TO.N,/SDA*%
X125886250Y-109481070D03*
D98*
%TO.P,U1,2,DIG0*%
%TO.N,/K0*%
X126521250Y-109481070D03*
%TO.P,U1,3,DIG1*%
%TO.N,/K1*%
X127156250Y-109481070D03*
%TO.P,U1,4,DIG2*%
%TO.N,/K2*%
X127791250Y-109481070D03*
%TO.P,U1,5,DIG3*%
%TO.N,/K3*%
X128426250Y-109481070D03*
%TO.P,U1,6,GND*%
%TO.N,GND*%
X129061250Y-109481070D03*
%TO.P,U1,7,DIG4*%
%TO.N,/K4*%
X129696250Y-109481070D03*
%TO.P,U1,8,DIG5*%
%TO.N,/K5*%
X130331250Y-109481070D03*
%TO.P,U1,9,DIG6*%
%TO.N,/K6*%
X130966250Y-109481070D03*
%TO.P,U1,10,DIG7*%
%TO.N,/K7*%
X131601250Y-109481070D03*
%TO.P,U1,11,KEYA*%
%TO.N,/INPA*%
X132236250Y-109481070D03*
%TO.P,U1,12,KEYB*%
%TO.N,/INPB*%
X132871250Y-109481070D03*
%TO.P,U1,13,ISET*%
%TO.N,/RSET*%
X132871250Y-104206070D03*
%TO.P,U1,14,SCL*%
%TO.N,/SCL*%
X132236250Y-104206070D03*
%TO.P,U1,15,SEGA*%
%TO.N,/A0*%
X131601250Y-104206070D03*
%TO.P,U1,16,SEGF*%
%TO.N,/A5*%
X130966250Y-104206070D03*
%TO.P,U1,17,SEGB*%
%TO.N,/A1*%
X130331250Y-104206070D03*
%TO.P,U1,18,SEGG*%
%TO.N,/A6*%
X129696250Y-104206070D03*
%TO.P,U1,19,VDD*%
%TO.N,VDD*%
X129061250Y-104206070D03*
%TO.P,U1,20,SEGC*%
%TO.N,/A2*%
X128426250Y-104206070D03*
%TO.P,U1,21,SEGE*%
%TO.N,/A4*%
X127791250Y-104206070D03*
%TO.P,U1,22,SEGDP*%
%TO.N,/A7*%
X127156250Y-104206070D03*
%TO.P,U1,23,SEGD*%
%TO.N,/A3*%
X126521250Y-104206070D03*
%TO.P,U1,24,IRQ*%
%TO.N,/IRQ*%
X125886250Y-104206070D03*
%TD*%
D99*
%TO.P,LED54,1,K*%
%TO.N,/K1*%
X126373788Y-72397423D03*
D100*
%TO.P,LED54,2,A*%
%TO.N,/A2*%
X126761512Y-70402757D03*
%TD*%
D101*
%TO.P,LED42,1,K*%
%TO.N,/K3*%
X122282230Y-91709179D03*
D102*
%TO.P,LED42,2,A*%
%TO.N,/A0*%
X121423470Y-89867561D03*
%TD*%
D103*
%TO.P,LED41,1,K*%
%TO.N,/K3*%
X125381467Y-94222368D03*
D104*
%TO.P,LED41,2,A*%
%TO.N,/A1*%
X123658233Y-93145572D03*
%TD*%
D63*
%TO.P,LED50,1,K*%
%TO.N,/K1*%
X134191122Y-85247090D03*
D64*
%TO.P,LED50,2,A*%
%TO.N,/A6*%
X132178898Y-85529890D03*
%TD*%
D105*
%TO.P,LED18,1,K*%
%TO.N,/K6*%
X150268340Y-76557915D03*
D106*
%TO.P,LED18,2,A*%
%TO.N,/A3*%
X151654160Y-78044025D03*
%TD*%
D59*
%TO.P,LED22,1,K*%
%TO.N,/K5*%
X141518578Y-79210050D03*
D60*
%TO.P,LED22,2,A*%
%TO.N,/A6*%
X143530802Y-78927250D03*
%TD*%
D107*
%TO.P,LED10,1,K*%
%TO.N,/K7*%
X138549768Y-71077970D03*
D108*
%TO.P,LED10,2,A*%
%TO.N,/A4*%
X140309532Y-70061970D03*
%TD*%
D109*
%TO.P,LED51,1,K*%
%TO.N,/K1*%
X129790101Y-84987670D03*
D110*
%TO.P,LED51,2,A*%
%TO.N,/A5*%
X128146179Y-83793290D03*
%TD*%
D111*
%TO.P,LED11,1,K*%
%TO.N,/K7*%
X142264485Y-69323997D03*
D112*
%TO.P,LED11,2,A*%
%TO.N,/A3*%
X144265615Y-68971143D03*
%TD*%
D113*
%TO.P,TP1,1,1*%
%TO.N,/IRQ*%
X125586650Y-101075370D03*
%TD*%
D114*
%TO.P,LED45,1,K*%
%TO.N,/K2*%
X129276059Y-90328750D03*
D115*
%TO.P,LED45,2,A*%
%TO.N,/A4*%
X127434441Y-89469990D03*
%TD*%
D116*
%TO.P,LED47,1,K*%
%TO.N,/K2*%
X122933235Y-84259345D03*
D117*
%TO.P,LED47,2,A*%
%TO.N,/A2*%
X122042465Y-82432995D03*
%TD*%
D118*
%TO.P,LED36,1,K*%
%TO.N,/K3*%
X141266488Y-86213172D03*
D119*
%TO.P,LED36,2,A*%
%TO.N,/A6*%
X140844012Y-88200768D03*
%TD*%
D50*
%TO.P,R6,1*%
%TO.N,VDD*%
X142336250Y-106918570D03*
%TO.P,R6,2*%
%TO.N,/RSET*%
X142336250Y-105268570D03*
%TD*%
D120*
%TO.P,LED25,1,K*%
%TO.N,/K5*%
X149445387Y-87360132D03*
D121*
%TO.P,LED25,2,A*%
%TO.N,/A3*%
X149551733Y-89389348D03*
%TD*%
D75*
%TO.P,LED29,1,K*%
%TO.N,/K4*%
X142330697Y-82519481D03*
D76*
%TO.P,LED29,2,A*%
%TO.N,/A6*%
X143437403Y-84223659D03*
%TD*%
D122*
%TO.P,LED14,1,K*%
%TO.N,/K7*%
X153427470Y-72747961D03*
D123*
%TO.P,LED14,2,A*%
%TO.N,/A0*%
X154286230Y-74589579D03*
%TD*%
D124*
%TO.N,/SCL*%
X138921650Y-108314370D03*
%TO.N,/SDA*%
X124951650Y-109000170D03*
%TO.N,/A4*%
X148091050Y-86063970D03*
X143392050Y-75573770D03*
X127999650Y-101964370D03*
X130615850Y-91524970D03*
X127755060Y-78055500D03*
%TO.N,/A2*%
X128914050Y-102167570D03*
X151621650Y-79485370D03*
X122335450Y-85987770D03*
X126983650Y-73643370D03*
X129549050Y-93988770D03*
X147354450Y-94674570D03*
%TO.N,/K4*%
X132317650Y-99271970D03*
X129701450Y-107577770D03*
%TO.N,/K1*%
X126145450Y-107577770D03*
X124846250Y-79843570D03*
%TO.N,/A6*%
X140598050Y-81644370D03*
X139175650Y-86648170D03*
%TO.N,/K7*%
X132749450Y-107577770D03*
X149665850Y-73363970D03*
%TO.N,/K6*%
X131733450Y-107577770D03*
X149456250Y-78533570D03*
%TO.N,/INPA*%
X133663850Y-107933370D03*
%TO.N,/K0*%
X125129450Y-107577770D03*
X129777650Y-74481570D03*
%TO.N,/IRQ*%
X133359050Y-111057570D03*
X122462450Y-98992570D03*
%TO.N,/A3*%
X148167250Y-90381970D03*
X125281850Y-97697170D03*
X125688250Y-90000970D03*
X148853050Y-76691370D03*
X127669450Y-75294370D03*
%TO.N,/K2*%
X127161450Y-107577770D03*
X124900850Y-84692370D03*
%TO.N,/K3*%
X128177450Y-107577770D03*
X130496250Y-96983570D03*
%TO.N,/K5*%
X130717450Y-107577770D03*
X141080650Y-101659570D03*
%TO.N,/A7*%
X127161450Y-97468570D03*
X127212250Y-99094170D03*
%TO.N,/INPB*%
X134400450Y-108441370D03*
%TO.N,/A1*%
X121014650Y-81441170D03*
X152155050Y-83015970D03*
X145388550Y-98791020D03*
X128380650Y-70214370D03*
%TO.N,/A5*%
X135111650Y-91372570D03*
X133790850Y-102040570D03*
X141283850Y-76284970D03*
X143671450Y-81288770D03*
X129980850Y-82025370D03*
%TD*%
D125*
%TO.N,/SCL*%
X134070250Y-105850570D02*
X132698650Y-105850570D01*
X138921650Y-108314370D02*
X136534050Y-108314370D01*
X136534050Y-108314370D02*
X134070250Y-105850570D01*
X132698650Y-105850570D02*
X132241440Y-105393360D01*
X132241440Y-105393360D02*
X132236250Y-104206070D01*
%TO.N,/SDA*%
X125886250Y-109481070D02*
X125866050Y-109000170D01*
X124951650Y-109000170D02*
X125866050Y-109000170D01*
D126*
%TO.N,VDD*%
X139683650Y-109203370D02*
X142147450Y-106739570D01*
X125383450Y-105672770D02*
X124799250Y-105088570D01*
X136686450Y-109203370D02*
X139683650Y-109203370D01*
X124799250Y-103767770D02*
X123836250Y-102843570D01*
X135289450Y-110168570D02*
X135289450Y-108060370D01*
X129041050Y-105672770D02*
X125383450Y-105672770D01*
X135289450Y-108060370D02*
X133790850Y-106561770D01*
X123836250Y-102843570D02*
X123836250Y-101918570D01*
X135086250Y-110803570D02*
X136686450Y-109203370D01*
X124799250Y-105088570D02*
X124799250Y-103767770D01*
X135086250Y-110803570D02*
X135289450Y-110168570D01*
X133790850Y-106561770D02*
X129930050Y-106561770D01*
X129930050Y-106561770D02*
X129041050Y-105672770D01*
D127*
X129041050Y-105672770D02*
X129061250Y-104206070D01*
D126*
%TO.N,GND*%
X128406050Y-106485570D02*
X125053250Y-106485570D01*
X129254850Y-111093570D02*
X131586250Y-111093570D01*
X129066480Y-110905200D02*
X129254850Y-111093570D01*
X131586250Y-111093570D02*
X133836250Y-113343570D01*
X133836250Y-113343570D02*
X135086250Y-113343570D01*
X129066480Y-108187400D02*
X128914050Y-108034970D01*
D127*
X129066480Y-109620000D02*
X129066480Y-108187400D01*
D126*
X128914050Y-106993570D02*
X128406050Y-106485570D01*
X122538650Y-100858270D02*
X123128350Y-100268570D01*
X128914050Y-108034970D02*
X128914050Y-106993570D01*
X122538650Y-102777170D02*
X122538650Y-100858270D01*
X125053250Y-106485570D02*
X124011850Y-105444170D01*
X124011850Y-105444170D02*
X124011850Y-104250370D01*
X124011850Y-104250370D02*
X122538650Y-102777170D01*
X123128350Y-100268570D02*
X123836250Y-100268570D01*
D127*
X129066480Y-110905200D02*
X129066480Y-109620000D01*
D125*
%TO.N,/A4*%
X126466690Y-79596189D02*
X126460150Y-79571648D01*
D128*
X147877513Y-86668570D02*
X148091050Y-86063970D01*
D125*
X140309532Y-70061970D02*
X140331536Y-70049316D01*
D128*
X127755060Y-78055500D02*
X128883501Y-73895892D01*
X143392050Y-75573770D02*
X143427350Y-75573770D01*
X144408040Y-72373350D02*
X145313462Y-72690158D01*
X127999650Y-102396170D02*
X127999650Y-101964370D01*
X128129080Y-90969390D02*
X128129070Y-90969387D01*
X130326365Y-71978683D02*
X131657827Y-71336523D01*
X146826220Y-90307260D02*
X147877513Y-86668570D01*
X130306250Y-92339396D02*
X130615850Y-91524970D01*
X133851650Y-93242080D02*
X133851652Y-93242070D01*
X145484920Y-92326040D02*
X146069430Y-91684900D01*
X130955950Y-92545760D02*
X130306250Y-92339396D01*
X146826199Y-90307258D02*
X146826220Y-90307260D01*
X127755060Y-78055500D02*
X127755066Y-78055496D01*
X127791250Y-104206070D02*
X127791250Y-102604570D01*
X127434441Y-89469990D02*
X128129080Y-90969390D01*
D125*
X149310898Y-84856212D02*
X149249560Y-84885472D01*
D128*
X145416160Y-72729917D02*
X145313462Y-72690158D01*
X130955950Y-92545760D02*
X133851650Y-93242080D01*
X130296250Y-92335616D02*
X130306250Y-92339396D01*
X146069430Y-91684900D02*
X146069425Y-91684890D01*
X141718442Y-71171466D02*
X144408040Y-72373350D01*
X127791250Y-102604570D02*
X127999650Y-102396170D01*
X148332450Y-85664770D02*
X148091050Y-86063970D01*
D125*
X135378170Y-94407830D02*
X135378174Y-94407824D01*
D128*
X144051873Y-93120617D02*
X145484920Y-92326040D01*
X147506105Y-73664763D02*
X148275259Y-75241150D01*
X144754625Y-75023995D02*
X144754628Y-75023998D01*
D125*
X135400168Y-94395170D02*
X135378170Y-94407830D01*
D128*
X146069425Y-91684890D02*
G75*
G03*
X146826192Y-90307256I-2219125J2115690D01*
G01*
X145416160Y-72729917D02*
G75*
G02*
X144754639Y-75024007I-3044260J-364583D01*
G01*
X145313462Y-72690158D02*
G75*
G02*
X147506097Y-73664775I-1472662J-6266842D01*
G01*
X128883501Y-73895892D02*
G75*
G02*
X130326375Y-71978701I2975899J-738108D01*
G01*
X127755066Y-78055496D02*
G75*
G02*
X126460147Y-79571642I-2477566J804996D01*
G01*
X141718442Y-71171466D02*
G75*
G02*
X140331562Y-70049300I846158J2463866D01*
G01*
X128129070Y-90969387D02*
G75*
G03*
X130296250Y-92335616I4448130J4653887D01*
G01*
X133851652Y-93242070D02*
G75*
G02*
X135378164Y-94407830I-706552J-2507530D01*
G01*
X144754625Y-75023995D02*
G75*
G02*
X143427350Y-75573800I-1327325J1327295D01*
G01*
X148332450Y-85664770D02*
G75*
G02*
X149249562Y-84885477I2099950J-1542030D01*
G01*
D125*
%TO.N,/A2*%
X148310431Y-69486730D02*
X148334977Y-69493316D01*
D128*
X128426250Y-104206070D02*
X128431440Y-102650180D01*
X127846079Y-94492459D02*
X127374720Y-94963822D01*
X147124110Y-94853550D02*
X147354450Y-94674570D01*
X127228308Y-73405628D02*
X126983650Y-73643370D01*
X126761512Y-70402757D02*
X127362113Y-70629651D01*
X127811140Y-72053773D02*
X127823262Y-71737103D01*
X153044050Y-76792970D02*
X153729850Y-78215370D01*
D125*
X138050768Y-99312649D02*
X137830980Y-99456690D01*
D128*
X121945559Y-86274261D02*
X122665650Y-87664170D01*
X137830980Y-99456690D02*
X139312423Y-99938039D01*
X153906220Y-82163020D02*
X154261800Y-81364330D01*
X121941890Y-86267170D02*
X122335450Y-85987770D01*
X136363955Y-64905447D02*
X137658932Y-65144491D01*
D125*
X127374720Y-94963822D02*
X127374723Y-94963824D01*
D128*
X129250075Y-70218918D02*
X129250069Y-70218932D01*
X154261801Y-81364344D02*
X154261800Y-81364330D01*
X149130032Y-71321817D02*
X153044050Y-76792970D01*
X121945559Y-86274261D02*
X121479640Y-85374950D01*
D125*
X153667235Y-82024145D02*
X153906220Y-82163020D01*
D128*
X129549050Y-93988770D02*
X128939450Y-94039570D01*
X127811967Y-71723570D02*
X127823262Y-71737103D01*
D125*
X127374720Y-94963822D02*
X127399269Y-94970410D01*
D128*
X121941890Y-86267170D02*
X121945559Y-86274261D01*
X131260328Y-67456713D02*
X134138255Y-65410989D01*
X151621650Y-79485370D02*
X153729850Y-78215370D01*
X147354450Y-94674570D02*
X147124149Y-94853554D01*
X147607128Y-94434448D02*
X147354450Y-94674570D01*
X141578774Y-99667915D02*
X147124110Y-94853550D01*
D125*
X148948188Y-94054383D02*
X148923789Y-93995170D01*
D128*
X121479640Y-85374950D02*
X121479644Y-85374955D01*
X126579670Y-93135300D02*
X126579668Y-93135323D01*
X124037250Y-89772370D02*
X126579670Y-93135300D01*
X153729850Y-78215370D02*
X154230056Y-79082175D01*
X121447899Y-83092786D02*
X122042465Y-82432995D01*
X122665650Y-87664170D02*
X124037250Y-89772370D01*
X128431440Y-102650180D02*
X128914050Y-102167570D01*
X127811140Y-72053773D02*
G75*
G02*
X127228308Y-73405628I-2332540J204073D01*
G01*
X141578774Y-99667915D02*
G75*
G02*
X139312424Y-99938037I-1469974J2690715D01*
G01*
X149130032Y-71321817D02*
G75*
G02*
X148334942Y-69493317I1809668J1874017D01*
G01*
X128939450Y-94039570D02*
G75*
G03*
X127846110Y-94492490I50J-1546230D01*
G01*
X121479644Y-85374955D02*
G75*
G02*
X121447890Y-83092784I4423456J1202855D01*
G01*
X147607128Y-94434448D02*
G75*
G02*
X148923789Y-93995168I1453072J-2162452D01*
G01*
X127362113Y-70629651D02*
G75*
G02*
X127811968Y-71723570I-1494513J-1254049D01*
G01*
X129250069Y-70218932D02*
G75*
G02*
X131260323Y-67456708I6962231J-2954268D01*
G01*
X126579668Y-93135323D02*
G75*
G02*
X127374678Y-94963825I-1810068J-1874077D01*
G01*
X127823262Y-71737103D02*
G75*
G03*
X129250071Y-70218916I-1575362J2910103D01*
G01*
X154230056Y-79082175D02*
G75*
G02*
X154261796Y-81364343I-4423456J-1202825D01*
G01*
X134138255Y-65410989D02*
G75*
G02*
X136363951Y-64905470I1743145J-2522311D01*
G01*
D125*
%TO.N,/K4*%
X129696250Y-109481070D02*
X129701450Y-107577770D01*
D128*
X141415143Y-94082463D02*
X142788606Y-95177785D01*
D125*
X144911247Y-86336280D02*
X144968527Y-86365549D01*
D128*
X138539263Y-96646583D02*
X139792532Y-98266091D01*
D125*
X142330697Y-82519481D02*
X142316840Y-82498210D01*
D128*
X143593490Y-90940770D02*
X144713427Y-91199323D01*
X135246250Y-98425252D02*
X135762162Y-100171970D01*
X144839847Y-83193773D02*
X144839849Y-83193771D01*
X143592811Y-90950058D02*
X144713427Y-91199323D01*
X144117053Y-87568315D02*
X144117060Y-87568310D01*
X142316840Y-82498210D02*
X143160610Y-82498210D01*
X131097831Y-100602828D02*
X132317650Y-99271970D01*
X132647848Y-99221174D02*
X132317650Y-99271970D01*
D125*
X144911247Y-86336280D02*
X145301363Y-86316341D01*
D128*
X144117060Y-87568310D02*
X143593490Y-90940770D01*
X143160610Y-82498210D02*
G75*
G02*
X144839840Y-83193780I-10J-2374790D01*
G01*
X143592811Y-90950058D02*
G75*
G02*
X141415143Y-94082463I-14415611J7698658D01*
G01*
X138539263Y-96646583D02*
G75*
G02*
X135246250Y-98425252I-9362063J13395183D01*
G01*
X141415143Y-94082463D02*
G75*
G02*
X138539263Y-96646584I-12237943J10831063D01*
G01*
X135246250Y-98425252D02*
G75*
G02*
X132647848Y-99221175I-6068950J15173552D01*
G01*
X144839849Y-83193771D02*
G75*
G02*
X144968486Y-86365514I-1655649J-1655629D01*
G01*
X144117053Y-87568315D02*
G75*
G02*
X145301356Y-86316299I1435347J-171585D01*
G01*
%TO.N,/K1*%
X133833297Y-86377137D02*
X133833290Y-86377150D01*
D125*
X127156250Y-109481070D02*
X127161420Y-108466740D01*
D128*
X132505584Y-86927097D02*
X132505570Y-86927100D01*
X125650750Y-82550136D02*
X125655478Y-82585724D01*
X134191122Y-85247090D02*
X136238140Y-84678350D01*
D125*
X124846250Y-79843570D02*
X124852591Y-79843570D01*
X127161420Y-108466740D02*
X126145450Y-107577770D01*
D128*
X129075010Y-86344810D02*
X129790101Y-84987670D01*
X124621450Y-72195550D02*
X126368980Y-72422370D01*
X125480608Y-82073570D02*
X126992610Y-81558951D01*
X126120060Y-67217190D02*
X127483350Y-67830790D01*
X124443680Y-77250180D02*
X126265670Y-77122360D01*
D125*
X134191122Y-85247090D02*
X134216280Y-85452530D01*
D128*
X129025690Y-63711600D02*
X129956410Y-63711600D01*
X134216280Y-85452530D02*
G75*
G02*
X133833269Y-86377129I-1307580J30D01*
G01*
X129075010Y-86344810D02*
G75*
G02*
X125655451Y-82585733I2776490J5960610D01*
G01*
X128120009Y-64086779D02*
G75*
G02*
X129025700Y-63711638I905691J-905721D01*
G01*
X125650750Y-82550136D02*
G75*
G02*
X125480609Y-82073569I19344050J7174736D01*
G01*
X126295233Y-66657037D02*
G75*
G02*
X128120004Y-64086736I10416667J-5462363D01*
G01*
X125480608Y-82073570D02*
G75*
G02*
X124852591Y-79843570I19524192J6701870D01*
G01*
X124852591Y-79843570D02*
G75*
G02*
X126327846Y-66580639I20152419J4471930D01*
G01*
X133833297Y-86377137D02*
G75*
G02*
X132505570Y-86927075I-1327697J1327737D01*
G01*
X132505584Y-86927097D02*
G75*
G02*
X129075010Y-86344811I-654184J6542697D01*
G01*
%TO.N,/A6*%
X138845449Y-78316969D02*
X138845455Y-78316975D01*
X140086665Y-78440575D02*
X140086659Y-78440581D01*
X140885727Y-83506843D02*
X140885731Y-83506849D01*
X130107850Y-101938970D02*
X129701460Y-102345360D01*
X134222650Y-83346170D02*
X134730650Y-82685770D01*
X140598050Y-81644370D02*
X140496087Y-81728407D01*
X129701460Y-102345360D02*
X129696250Y-104206070D01*
X142987380Y-80296440D02*
X142987382Y-80296442D01*
X140966724Y-80565246D02*
X140966725Y-80565245D01*
X139096160Y-78213120D02*
X139537540Y-78213120D01*
X133518800Y-97900080D02*
X131276250Y-98509970D01*
X137560300Y-75283420D02*
X137560303Y-75283369D01*
X138195922Y-89016701D02*
X139686150Y-88697790D01*
X133663850Y-83727170D02*
X134222650Y-83346170D01*
X134883050Y-79815570D02*
X135746650Y-77986770D01*
X131276250Y-98509970D02*
X130565050Y-98840170D01*
X130565050Y-98840170D02*
X130311050Y-99068770D01*
X134730650Y-82685770D02*
X134883050Y-82050770D01*
X136051450Y-75497570D02*
X137560300Y-75283420D01*
X134883050Y-82050770D02*
X134883050Y-79815570D01*
X137092850Y-78266170D02*
X138477520Y-78469370D01*
D125*
X132272297Y-80233481D02*
X132072675Y-80397935D01*
X135933549Y-88393442D02*
X135924016Y-88429146D01*
D128*
X133410113Y-97931119D02*
X133518800Y-97900080D01*
X139686150Y-88697790D02*
X140838710Y-88225630D01*
X130107850Y-99373570D02*
X130107850Y-101938970D01*
X131174650Y-83284310D02*
X131174650Y-82565960D01*
X135746650Y-77986770D02*
X136211105Y-77458715D01*
X139175650Y-86648170D02*
X140838710Y-88225630D01*
D125*
X139776151Y-76063698D02*
X139785689Y-76027973D01*
X143530802Y-78927250D02*
X143555970Y-78923750D01*
D128*
X143493650Y-87079970D02*
X143497650Y-87062363D01*
X142869755Y-90820359D02*
X142882872Y-90772022D01*
X132153740Y-85533400D02*
X132178898Y-85529890D01*
X142667760Y-84244990D02*
X143437403Y-84223659D01*
X142666500Y-80617320D02*
X142987380Y-80296440D01*
X134870990Y-76231510D02*
X136051450Y-75497570D01*
X139096160Y-78213130D02*
X139096160Y-78213120D01*
X132178898Y-85529890D02*
X132072675Y-85452335D01*
X130311050Y-99068770D02*
X130107850Y-99373570D01*
X140715274Y-81425544D02*
X140598050Y-81644370D01*
X134870990Y-76231510D02*
X136211105Y-77458715D01*
X136211105Y-77458715D02*
X137092850Y-78266170D01*
D125*
X134865688Y-76256372D02*
X134870990Y-76231510D01*
D128*
X143437403Y-84223659D02*
X143493650Y-87079970D01*
X132178898Y-85529890D02*
X133663850Y-83727170D01*
X142666500Y-80617320D02*
G75*
G02*
X141842650Y-80958614I-823900J823820D01*
G01*
X140394850Y-79184620D02*
G75*
G03*
X140966744Y-80565226I1952450J20D01*
G01*
X140496087Y-81728407D02*
G75*
G03*
X140369450Y-82260440I1054113J-531993D01*
G01*
X143497650Y-87062363D02*
G75*
G02*
X142869761Y-90820361I-12134350J95963D01*
G01*
X140966725Y-80565245D02*
G75*
G02*
X141182230Y-81085570I-520225J-520255D01*
G01*
X137560303Y-75283369D02*
G75*
G02*
X139785691Y-76027971I213897J-3058531D01*
G01*
X132072675Y-85452335D02*
G75*
G02*
X131174643Y-83284310I2168025J2168035D01*
G01*
X140715274Y-81425544D02*
G75*
G02*
X141842650Y-80958599I1127326J-1127356D01*
G01*
X138477520Y-78469370D02*
G75*
G03*
X138845447Y-78316967I-20J520370D01*
G01*
X131174650Y-82565960D02*
G75*
G02*
X132072695Y-80397955I3066050J-40D01*
G01*
X138845455Y-78316975D02*
G75*
G02*
X139096160Y-78213107I250745J-250725D01*
G01*
X138195922Y-89016701D02*
G75*
G02*
X135924012Y-88429151I-426722J3036201D01*
G01*
X140369450Y-82260440D02*
G75*
G03*
X140885753Y-83506817I1762650J40D01*
G01*
X140086659Y-78440581D02*
G75*
G02*
X140394830Y-79184620I-744059J-744019D01*
G01*
X142882872Y-90772022D02*
G75*
G02*
X133410111Y-97931107I-11941872J5954622D01*
G01*
X140885731Y-83506849D02*
G75*
G03*
X142667760Y-84245012I1782069J1782049D01*
G01*
X139537540Y-78213120D02*
G75*
G02*
X140086645Y-78440595I-40J-776580D01*
G01*
X143555970Y-78923750D02*
G75*
G02*
X142987405Y-80296465I-1941270J-50D01*
G01*
D125*
%TO.N,/K7*%
X146347669Y-68960810D02*
X146323130Y-69081250D01*
D128*
X153780630Y-71694780D02*
X153780660Y-71694780D01*
X153780630Y-71889710D02*
X153780660Y-71694780D01*
X153213426Y-70325316D02*
X153213375Y-70325305D01*
X153780630Y-71889710D02*
X153780660Y-71889720D01*
X141786250Y-67976961D02*
X142264485Y-69323997D01*
D125*
X153427470Y-72747961D02*
X153348859Y-72932179D01*
X131601250Y-109481070D02*
X131601250Y-108538570D01*
D128*
X133666784Y-77497626D02*
X134443212Y-78243968D01*
X137722216Y-69889536D02*
X138549768Y-71077970D01*
X149177721Y-67933755D02*
X149177698Y-67933773D01*
X134285555Y-73482875D02*
X135722696Y-74196228D01*
X146347669Y-68960810D02*
X146416250Y-67478283D01*
X150328233Y-70234772D02*
X151156415Y-68833405D01*
D125*
X131601250Y-108538570D02*
X132256250Y-107883570D01*
X132443650Y-107883570D02*
X132749450Y-107577770D01*
D128*
X146987813Y-70685937D02*
X149665850Y-73363970D01*
X135365635Y-71941581D02*
X135365640Y-71941580D01*
D125*
X132256250Y-107883570D02*
X132443650Y-107883570D01*
D128*
X133346110Y-76723450D02*
X133346090Y-76723451D01*
X146416250Y-67478283D02*
G75*
G02*
X149177696Y-67933779I-856550J-13791217D01*
G01*
X151156415Y-68833405D02*
G75*
G02*
X153213425Y-70325317I-5837115J-10212095D01*
G01*
X153213375Y-70325305D02*
G75*
G02*
X153780644Y-71694780I-1369475J-1369495D01*
G01*
X134285555Y-73482875D02*
G75*
G02*
X135365628Y-71941575I7071245J-3806125D01*
G01*
X133666784Y-77497626D02*
G75*
G02*
X133346157Y-76723450I774216J774126D01*
G01*
X149177721Y-67933755D02*
G75*
G02*
X151156415Y-68833405I-3858021J-11111145D01*
G01*
X137722216Y-69889536D02*
G75*
G02*
X141786250Y-67976962I7837484J-11379764D01*
G01*
X146987813Y-70685937D02*
G75*
G02*
X146323165Y-69081250I1604687J1604637D01*
G01*
X141786250Y-67976961D02*
G75*
G02*
X146416249Y-67478301I3773550J-13293139D01*
G01*
X153780660Y-71889720D02*
G75*
G02*
X153348849Y-72932169I-1474260J20D01*
G01*
X135365640Y-71941580D02*
G75*
G02*
X137722217Y-69889537I10193960J-9327620D01*
G01*
X133346090Y-76723451D02*
G75*
G02*
X134285553Y-73482874I8011610J-566149D01*
G01*
%TO.N,/K6*%
X149111900Y-78048172D02*
X150268340Y-76557915D01*
D125*
X130966250Y-109481070D02*
X130971430Y-108339790D01*
D128*
X151513520Y-83638260D02*
X151513513Y-83638260D01*
X140039250Y-77453370D02*
X140725050Y-77275570D01*
X151513520Y-83638260D02*
X151668215Y-84703570D01*
X151668215Y-84703570D02*
X154169318Y-84489325D01*
D125*
X149456250Y-78533570D02*
X149453224Y-78536596D01*
D128*
X150835799Y-81213570D02*
X152776465Y-80197795D01*
X152261536Y-87745254D02*
X154150650Y-89299658D01*
X138219549Y-77369842D02*
X139328050Y-77504170D01*
X151668215Y-84703570D02*
X152028050Y-87181570D01*
X145652673Y-76203381D02*
X145625418Y-76192722D01*
X139328050Y-77504170D02*
X140039250Y-77453370D01*
X140725050Y-77275570D02*
X141456756Y-76953313D01*
X149111900Y-78048172D02*
X149456250Y-78533570D01*
X141716290Y-74532320D02*
X142226250Y-76633825D01*
D125*
X130971430Y-108339790D02*
X131733450Y-107577770D01*
D128*
X145652673Y-76203381D02*
X146433641Y-74382390D01*
X150835799Y-81213570D02*
G75*
G02*
X151513506Y-83638261I-12669199J-4848130D01*
G01*
X142226250Y-76633825D02*
G75*
G02*
X145652673Y-76203381I2690950J-7567775D01*
G01*
X141456756Y-76953313D02*
G75*
G02*
X142226248Y-76633821I3460344J-7247787D01*
G01*
X149453224Y-78536596D02*
G75*
G02*
X150835800Y-81213570I-11288924J-7525904D01*
G01*
X145625418Y-76192722D02*
G75*
G02*
X149111915Y-78048156I-1914118J-7800178D01*
G01*
X152028050Y-87181570D02*
G75*
G03*
X152261525Y-87745265I797150J-30D01*
G01*
D125*
%TO.N,/INPA*%
X133283650Y-108313570D02*
X133663850Y-107933370D01*
X132266850Y-109000170D02*
X132266850Y-108502970D01*
X132266850Y-108502970D02*
X132456250Y-108313570D01*
X132456250Y-108313570D02*
X133283650Y-108313570D01*
X132236250Y-109481070D02*
X132266850Y-109000170D01*
%TO.N,/K0*%
X126526420Y-109620010D02*
X126526420Y-108466740D01*
X133379003Y-81937659D02*
X133392848Y-81958928D01*
D128*
X132687111Y-73843570D02*
X132686894Y-73844358D01*
X133816240Y-80936770D02*
X133816230Y-80936780D01*
X133573900Y-80011510D02*
X133573887Y-80011506D01*
D125*
X125789850Y-108238170D02*
X126297850Y-108238170D01*
D128*
X133816230Y-80936780D02*
X133816240Y-80596570D01*
X132364147Y-75446608D02*
X132364289Y-75445873D01*
X132569441Y-77593570D02*
X130789603Y-78121240D01*
D125*
X125129450Y-107577770D02*
X125789850Y-108238170D01*
X126521250Y-109481070D02*
X126526420Y-109620010D01*
D128*
X130229364Y-74294464D02*
X130996273Y-73257817D01*
X136907920Y-67665240D02*
X135917168Y-66191049D01*
X143030683Y-65393852D02*
X143030670Y-65393850D01*
X134329380Y-70336700D02*
X132921094Y-69279355D01*
X143594906Y-65160136D02*
X144611405Y-63745038D01*
X132687111Y-73843570D02*
X130996273Y-73257817D01*
D125*
X126297850Y-108238170D02*
X126526420Y-108466740D01*
D128*
X140336250Y-65905638D02*
X140074538Y-64285170D01*
X132364289Y-75445873D02*
G75*
G02*
X132686894Y-73844358I11448611J-1472927D01*
G01*
X129777650Y-74481570D02*
G75*
G03*
X130229379Y-74294479I50J638770D01*
G01*
X133816240Y-80936770D02*
G75*
G02*
X133392861Y-81958941I-1445540J-30D01*
G01*
X133573900Y-80011510D02*
G75*
G02*
X133816249Y-80596570I-585100J-585090D01*
G01*
X134329380Y-70336700D02*
G75*
G02*
X136907919Y-67665239I9495020J-6584600D01*
G01*
X140336250Y-65905638D02*
G75*
G02*
X143030682Y-65393842I3488450J-11016962D01*
G01*
X136907920Y-67665240D02*
G75*
G02*
X140336250Y-65905638I6916380J-9255960D01*
G01*
X143030670Y-65393850D02*
G75*
G03*
X143594921Y-65160151I30J797950D01*
G01*
X132687111Y-73843570D02*
G75*
G02*
X134329380Y-70336700I11137089J-3077530D01*
G01*
X133573887Y-80011506D02*
G75*
G02*
X132569440Y-77593570I6815613J4248906D01*
G01*
X132569441Y-77593570D02*
G75*
G02*
X132364150Y-75446608I7821359J1831170D01*
G01*
D125*
%TO.N,/IRQ*%
X124824650Y-98992570D02*
X122462450Y-98992570D01*
X134349650Y-112048170D02*
X139251850Y-112048170D01*
X125586650Y-101075370D02*
X125586650Y-99754570D01*
D128*
X125891450Y-102726370D02*
X125586650Y-102421570D01*
X125586650Y-102421570D02*
X125586650Y-101075370D01*
D125*
X140293250Y-111006770D02*
X140166250Y-110803570D01*
X139251850Y-112048170D02*
X140293250Y-111006770D01*
X125891450Y-104097940D02*
X125886250Y-104206070D01*
D128*
X125891450Y-104097940D02*
X125891450Y-102726370D01*
D125*
X125586650Y-99754570D02*
X124824650Y-98992570D01*
X133359050Y-111057570D02*
X134349650Y-112048170D01*
D128*
%TO.N,/A3*%
X125688250Y-90000970D02*
X126780450Y-91270970D01*
X126526400Y-102904220D02*
X126704250Y-102726370D01*
X145414110Y-71288195D02*
X145414120Y-71288180D01*
X128075850Y-92210770D02*
X129269650Y-92693370D01*
D125*
X144265615Y-68971143D02*
X144359888Y-68905595D01*
X126157967Y-75067792D02*
X126258265Y-75067823D01*
X124207940Y-86413115D02*
X123758541Y-86392901D01*
D128*
X124982328Y-89321837D02*
X125688250Y-90000970D01*
X130295600Y-93168945D02*
X130295590Y-93168950D01*
X144992838Y-95522387D02*
X144992810Y-95522380D01*
X127840110Y-73854030D02*
X130818470Y-68960150D01*
D125*
X149551733Y-89389348D02*
X149553025Y-89414697D01*
X126157967Y-75067792D02*
X126043850Y-75294370D01*
X151654160Y-78044025D02*
X151944752Y-78163570D01*
D128*
X148167250Y-90381970D02*
X148155007Y-90352327D01*
X132818600Y-67860710D02*
X134372490Y-67752050D01*
X145414120Y-71288180D02*
X149948486Y-74571334D01*
X126043850Y-75294370D02*
X127669450Y-75294370D01*
X141438840Y-96730510D02*
X142992690Y-96621810D01*
D125*
X134254206Y-67745785D02*
X134372490Y-67752050D01*
D128*
X149948486Y-74571334D02*
X150727372Y-75135323D01*
X144992810Y-95522380D02*
X148167250Y-90381970D01*
X129269650Y-92693370D02*
X130295590Y-93168950D01*
X130818470Y-68960150D02*
X130818472Y-68960153D01*
X148853050Y-76691370D02*
X149948486Y-74571334D01*
X126780450Y-91270970D02*
X128075850Y-92210770D01*
X126521250Y-104206070D02*
X126526400Y-102904220D01*
X132818606Y-67860709D02*
X132818600Y-67860710D01*
D125*
X131444085Y-95485997D02*
X131349822Y-95551545D01*
D128*
X126704250Y-102726370D02*
X126704250Y-99805370D01*
D125*
X141455494Y-96711355D02*
X141438840Y-96730510D01*
D128*
X125281850Y-98382970D02*
X125281850Y-97697170D01*
X126704250Y-99805370D02*
X125281850Y-98382970D01*
X142992690Y-96621810D02*
X142992704Y-96621831D01*
X124982328Y-89321837D02*
G75*
G02*
X123758535Y-86392901I2442872J2740837D01*
G01*
X130818472Y-68960153D02*
G75*
G02*
X132818605Y-67860697I2370928J-1944147D01*
G01*
X127840110Y-73854030D02*
G75*
G02*
X126258270Y-75067842I-2256110J1302530D01*
G01*
X150727372Y-75135323D02*
G75*
G02*
X151944753Y-78163570I-2442872J-2740877D01*
G01*
X145414110Y-71288195D02*
G75*
G02*
X144359912Y-68905598I1535690J2103995D01*
G01*
X144992838Y-95522387D02*
G75*
G02*
X142992701Y-96621806I-2370838J1944087D01*
G01*
X148155007Y-90352327D02*
G75*
G02*
X149553025Y-89414698I2072093J-1578473D01*
G01*
X130295600Y-93168945D02*
G75*
G02*
X131349848Y-95551548I-1535700J-2104055D01*
G01*
D125*
%TO.N,/K2*%
X137490151Y-87087298D02*
X137675099Y-86894773D01*
D128*
X135863720Y-86426230D02*
X135863724Y-86426231D01*
X121540840Y-80145580D02*
X122995850Y-80018770D01*
X124900850Y-84692370D02*
X124921988Y-84677832D01*
X122944390Y-84282170D02*
X124138850Y-83549370D01*
X122175870Y-75693590D02*
X122818050Y-76335770D01*
X137490151Y-87087298D02*
X137838140Y-84678350D01*
X133496250Y-87818769D02*
X133993410Y-89924820D01*
X135863720Y-86426230D02*
X136431240Y-86371200D01*
D125*
X127791250Y-109481070D02*
X127791250Y-108528570D01*
D128*
X126597783Y-86408968D02*
X126597790Y-86408928D01*
X129276059Y-90328750D02*
X130057027Y-88253759D01*
X135329982Y-86687559D02*
X135317196Y-86701054D01*
X123059890Y-77517470D02*
X123059890Y-76919630D01*
X125593760Y-87899225D02*
X126597790Y-86408928D01*
X130084272Y-88264378D02*
X130057027Y-88253759D01*
X134252944Y-87503827D02*
X134252939Y-87503830D01*
D125*
X127161450Y-107898770D02*
X127161450Y-107577770D01*
D128*
X136431202Y-86371181D02*
X136431240Y-86371200D01*
D125*
X127791250Y-108528570D02*
X127161450Y-107898770D01*
D128*
X135317196Y-86701054D02*
G75*
G02*
X135863726Y-86426238I1108504J-1523646D01*
G01*
X126597790Y-86408928D02*
G75*
G03*
X130084276Y-88264361I5400610J5944728D01*
G01*
X126597783Y-86408968D02*
G75*
G02*
X124921988Y-84677832I6091417J7573368D01*
G01*
X133496250Y-87818769D02*
G75*
G03*
X134252946Y-87503831I-2701750J7557969D01*
G01*
X121555520Y-75436630D02*
G75*
G02*
X122175849Y-75693601I-20J-877270D01*
G01*
X136431202Y-86371181D02*
G75*
G02*
X137675097Y-86894774I125998J-1440019D01*
G01*
X122818055Y-76335765D02*
G75*
G02*
X123059882Y-76919630I-583855J-583835D01*
G01*
X130057027Y-88253759D02*
G75*
G03*
X133496250Y-87818770I735573J7997759D01*
G01*
X135329982Y-86687559D02*
G75*
G02*
X134252942Y-87503835I-5372482J5970059D01*
G01*
X124921988Y-84677832D02*
G75*
G02*
X123059934Y-77517480I7767112J5842132D01*
G01*
D125*
%TO.N,/K3*%
X130496250Y-96983570D02*
X130506250Y-97000854D01*
D128*
X133445215Y-95133143D02*
X133906250Y-96485053D01*
X129295050Y-96935170D02*
X129386570Y-95502880D01*
X142363600Y-87733700D02*
X142363600Y-87733699D01*
D125*
X122282230Y-91709179D02*
X122360851Y-91524971D01*
D128*
X137159932Y-93379170D02*
X138036428Y-94533748D01*
X139438140Y-84678350D02*
X141266488Y-86213172D01*
X124555070Y-95624750D02*
X125381467Y-94222368D01*
X126531999Y-96523385D02*
X126532002Y-96523387D01*
D125*
X128426250Y-109481070D02*
X128431450Y-108390570D01*
D128*
X121929050Y-92762350D02*
X121929050Y-92567430D01*
D125*
X128177450Y-108136570D02*
X128177450Y-107577770D01*
D128*
X122496305Y-94131825D02*
X122496294Y-94131824D01*
X140344060Y-92515580D02*
X140344055Y-92515569D01*
X139987004Y-90260912D02*
X141428602Y-90965922D01*
X141266488Y-86213172D02*
X142042926Y-86959524D01*
D125*
X128431450Y-108390570D02*
X128177450Y-108136570D01*
D128*
X133906250Y-96485053D02*
G75*
G02*
X130506250Y-97000848I-3756450J13297753D01*
G01*
X126531999Y-96523385D02*
G75*
G02*
X124555070Y-95624751I3858001J11111185D01*
G01*
X124555070Y-95624750D02*
G75*
G02*
X122496289Y-94131830I5834630J10212150D01*
G01*
X142042926Y-86959524D02*
G75*
G02*
X142363615Y-87733700I-774126J-774176D01*
G01*
X130506250Y-97000854D02*
G75*
G02*
X126532005Y-96523376I-356250J13813154D01*
G01*
X122496305Y-94131825D02*
G75*
G02*
X121929020Y-92762350I1369495J1369525D01*
G01*
X141428602Y-90965922D02*
G75*
G02*
X140344057Y-92515571I-7077602J3799022D01*
G01*
X121929050Y-92567430D02*
G75*
G02*
X122360838Y-91524958I1474250J30D01*
G01*
X138036428Y-94533748D02*
G75*
G02*
X133906250Y-96485054I-7886628J11346348D01*
G01*
X140344060Y-92515580D02*
G75*
G02*
X138036428Y-94533748I-10193960J9327680D01*
G01*
X142363600Y-87733699D02*
G75*
G02*
X141428603Y-90965922I-8011600J566199D01*
G01*
D126*
%TO.N,/RSET*%
X141487050Y-105240970D02*
X142147450Y-105240970D01*
X132927250Y-103716970D02*
X139963050Y-103716970D01*
X139963050Y-103716970D02*
X141487050Y-105240970D01*
D125*
X132871250Y-104206070D02*
X132927250Y-103716970D01*
D128*
%TO.N,/A0*%
X155014341Y-73283175D02*
X155014350Y-73283170D01*
X135696520Y-61972820D02*
X138028530Y-61729600D01*
D125*
X154286230Y-74589579D02*
X154572333Y-74350293D01*
D128*
X156320670Y-81618950D02*
X154296900Y-74612620D01*
X156135116Y-88348094D02*
X156414650Y-86043040D01*
D125*
X153864260Y-91337010D02*
X153867850Y-91311882D01*
D128*
X145626202Y-62623445D02*
X146668500Y-63781020D01*
X153720986Y-91883570D02*
X153867850Y-91311882D01*
X142006250Y-61552970D02*
X143528423Y-61724203D01*
D125*
X144350140Y-102250225D02*
X144154630Y-102446970D01*
D128*
X156414650Y-86043040D02*
X156549480Y-84344030D01*
D125*
X146643095Y-63780502D02*
X146668500Y-63781020D01*
D128*
X153864260Y-91337010D02*
X155091731Y-90378035D01*
X119160450Y-81364970D02*
X119389050Y-82838170D01*
X132595550Y-102573970D02*
X133232050Y-102573970D01*
X133435250Y-102777170D02*
X134298850Y-102777170D01*
X120695360Y-91942280D02*
X120695360Y-91173960D01*
X126735060Y-98085320D02*
X127486650Y-98322610D01*
D125*
X131601250Y-104206070D02*
X131555650Y-103615370D01*
D128*
X119389050Y-82838170D02*
X121412790Y-89844510D01*
X133395538Y-62409732D02*
X135696520Y-61972820D01*
X120617980Y-74079110D02*
X121845440Y-73120110D01*
X138028530Y-61729600D02*
X140265380Y-61536980D01*
X145834385Y-102528188D02*
X145834409Y-102528192D01*
X119295040Y-78414090D02*
X119574600Y-76109060D01*
X140265380Y-61536980D02*
X142006250Y-61552970D01*
X134298850Y-102777170D02*
X134629050Y-102446970D01*
X133232050Y-102573970D02*
X133435250Y-102777170D01*
X150081690Y-99674413D02*
X150081688Y-99674410D01*
X156549260Y-83092150D02*
X156320670Y-81618950D01*
X131860972Y-102878242D02*
X131860979Y-102878239D01*
X119160220Y-80113100D02*
X119295040Y-78414090D01*
X156549480Y-84344030D02*
X156549260Y-83092150D01*
X134629050Y-102446970D02*
X144154630Y-102446970D01*
D125*
X144350140Y-102250225D02*
X144686764Y-102397433D01*
X154286230Y-74589579D02*
X154296900Y-74612620D01*
X146643095Y-63780502D02*
X146640260Y-64042340D01*
D128*
X119160220Y-80113100D02*
X119160450Y-81364970D01*
X125628020Y-64782727D02*
G75*
G02*
X129875299Y-61928942I7416580J-6450573D01*
G01*
X153720986Y-91883570D02*
G75*
G02*
X150081688Y-99674410I-15628986J2555270D01*
G01*
X146640260Y-64042340D02*
G75*
G02*
X155014295Y-73283177I-1443360J-9722660D01*
G01*
X155014350Y-73283170D02*
G75*
G02*
X154572350Y-74350310I-1509150J-30D01*
G01*
X127464021Y-98310167D02*
G75*
G02*
X129043414Y-100530800I-1096621J-2451933D01*
G01*
X150081690Y-99674413D02*
G75*
G02*
X145834404Y-102528178I-7416490J6450513D01*
G01*
X143528423Y-61724203D02*
G75*
G02*
X145626197Y-62623450I-72323J-3065197D01*
G01*
X129875315Y-61928952D02*
G75*
G02*
X131022938Y-62059703I415985J-1450648D01*
G01*
X131860972Y-102878242D02*
G75*
G02*
X132595550Y-102573929I734628J-734558D01*
G01*
X126765251Y-98097747D02*
G75*
G02*
X126442052Y-97826647I178449J540947D01*
G01*
X121593385Y-94110305D02*
G75*
G02*
X120695371Y-91942280I2168015J2168005D01*
G01*
X125417670Y-96745767D02*
G75*
G02*
X121558634Y-94078503I4623730J10814967D01*
G01*
X145834385Y-102528188D02*
G75*
G02*
X144686760Y-102397440I-415985J1450688D01*
G01*
X121840709Y-73757256D02*
G75*
G02*
X125628014Y-64782731I15777021J-1371604D01*
G01*
X120695360Y-91173960D02*
G75*
G02*
X121137397Y-90106857I1509140J-40D01*
G01*
X119574594Y-76109056D02*
G75*
G02*
X120617970Y-74079105I3052706J-285944D01*
G01*
X156135116Y-88348094D02*
G75*
G02*
X155091720Y-90378023I-3052716J285994D01*
G01*
X133395538Y-62409732D02*
G75*
G02*
X131414493Y-62184001I-718038J2504232D01*
G01*
X125417672Y-96745772D02*
G75*
G02*
X126434941Y-97843665I-1162572J-2097428D01*
G01*
X131555650Y-103615370D02*
G75*
G02*
X131860997Y-102878257I1042450J-30D01*
G01*
%TO.N,/K5*%
X149340740Y-92034780D02*
X151088250Y-92261570D01*
X149444030Y-87334760D02*
X151266050Y-87206970D01*
D125*
X130336410Y-107958810D02*
X130717450Y-107577770D01*
D128*
X148743780Y-82878510D02*
X150224650Y-82406370D01*
X145753280Y-100745530D02*
X146684000Y-100745530D01*
X144138420Y-100567370D02*
X146033650Y-100567370D01*
X145899050Y-79454540D02*
X146617850Y-78088370D01*
X141080650Y-101659570D02*
X141501620Y-101659570D01*
X148226360Y-96626340D02*
X149589650Y-97239970D01*
D125*
X130336410Y-109619990D02*
X130336410Y-107958810D01*
D128*
X143204136Y-77530043D02*
G75*
G02*
X150054228Y-81871421I654164J-6542757D01*
G01*
X147589691Y-100370381D02*
G75*
G02*
X146684000Y-100745533I-905691J905681D01*
G01*
X150058950Y-81907004D02*
G75*
G02*
X149381855Y-97876501I-19354250J-7178496D01*
G01*
X149414467Y-97800083D02*
G75*
G02*
X147589708Y-100370396I-10416667J5462283D01*
G01*
X141493420Y-79004630D02*
G75*
G02*
X141876401Y-78080001I1307580J30D01*
G01*
X143341250Y-100897570D02*
G75*
G02*
X141501620Y-101659572I-1839650J1839670D01*
G01*
X141876413Y-78080013D02*
G75*
G02*
X143204140Y-77530067I1327687J-1327687D01*
G01*
X143341249Y-100897569D02*
G75*
G02*
X144138420Y-100567372I797151J-797131D01*
G01*
%TO.N,/A7*%
X127156250Y-104206070D02*
X127212250Y-99094170D01*
X142052479Y-91110670D02*
X142235338Y-90804233D01*
X139476440Y-79688340D02*
X139480450Y-81466570D01*
X142884042Y-87785007D02*
X142884050Y-87785010D01*
X127161450Y-97468570D02*
X129825334Y-97636281D01*
X139438140Y-79778350D02*
X137838140Y-79778350D01*
D129*
X137838140Y-79778350D02*
X136238140Y-79778350D01*
D128*
X140378480Y-83761590D02*
X140378475Y-83761595D01*
X141182250Y-84489170D02*
X141614050Y-84743170D01*
X141986030Y-85038940D02*
X141986025Y-85038945D01*
X140378480Y-83761590D02*
X140775850Y-84133570D01*
D125*
X139438140Y-79778350D02*
X139476440Y-79688340D01*
D128*
X142884050Y-87785010D02*
X142884050Y-87206970D01*
X141614050Y-84743170D02*
X141986030Y-85038940D01*
X140775850Y-84133570D02*
X141182250Y-84489170D01*
X139480450Y-81593570D02*
X139480450Y-81466570D01*
X142884042Y-87785007D02*
G75*
G02*
X142235328Y-90804229I-8028942J145807D01*
G01*
X140378475Y-83761595D02*
G75*
G02*
X139480471Y-81593570I2168025J2167995D01*
G01*
X141986025Y-85038945D02*
G75*
G02*
X142884072Y-87206970I-2168025J-2168055D01*
G01*
X142052479Y-91110670D02*
G75*
G02*
X129825334Y-97636282I-11398319J6639310D01*
G01*
D125*
%TO.N,/INPB*%
X132871250Y-109481070D02*
X132876450Y-109025570D01*
X133816250Y-109025570D02*
X134400450Y-108441370D01*
X132876450Y-109025570D02*
X133816250Y-109025570D01*
D128*
%TO.N,/A1*%
X132393850Y-64575570D02*
X134552850Y-63559570D01*
X139528430Y-62546260D02*
X139528427Y-62546261D01*
X154720440Y-78697970D02*
X155152230Y-80120390D01*
X119964220Y-81232280D02*
X120176450Y-82990570D01*
X140954347Y-62956537D02*
X140954360Y-62956550D01*
X132748773Y-101455233D02*
X132749452Y-101456367D01*
X155745502Y-83123260D02*
X155745500Y-83123260D01*
X143315870Y-99881570D02*
X145388530Y-98791000D01*
D125*
X152051467Y-71311568D02*
X152145835Y-71327624D01*
D128*
X155152230Y-80120390D02*
X155507850Y-81466570D01*
X154204782Y-86521015D02*
X155185497Y-85335884D01*
X154009250Y-77097770D02*
X154720440Y-78697970D01*
X130321150Y-65666127D02*
X130321160Y-65666130D01*
X153395540Y-83355360D02*
X155745500Y-83123260D01*
D125*
X133749938Y-100454770D02*
X133536850Y-100694370D01*
D128*
X120176450Y-82990570D02*
X120557450Y-84336770D01*
X152163220Y-73321430D02*
X153348840Y-75853180D01*
X155507850Y-81466570D02*
X155745500Y-83123260D01*
X140954360Y-62956550D02*
X142111940Y-63998830D01*
X129091851Y-67794720D02*
X129091850Y-67794720D01*
X133423192Y-101204466D02*
X133749938Y-100454770D01*
X121700450Y-87359370D02*
X122360850Y-88603970D01*
X141156830Y-100795990D02*
X143315870Y-99881570D01*
X136635650Y-62822970D02*
X138083450Y-62619770D01*
X122360850Y-88603970D02*
X123546470Y-91135730D01*
D125*
X147356870Y-98490979D02*
X147356735Y-98430215D01*
D128*
X138083450Y-62619770D02*
X139528430Y-62546260D01*
D125*
X130331250Y-104206070D02*
X130340327Y-103840668D01*
D128*
X130321160Y-65666130D02*
X132393850Y-64575570D01*
X138980190Y-101494400D02*
X141156830Y-100795990D01*
X120989250Y-85759170D02*
X121700450Y-87359370D01*
X119998650Y-81542770D02*
X120995580Y-81437830D01*
X129091850Y-68497380D02*
X129091850Y-67794720D01*
X138980190Y-101494400D02*
X138980198Y-101494397D01*
X153348840Y-75853180D02*
X154009250Y-77097770D01*
X152163234Y-73321421D02*
X152163220Y-73321430D01*
X120557450Y-84336770D02*
X120989250Y-85759170D01*
D125*
X142086762Y-64002370D02*
X142111940Y-63998830D01*
D128*
X145388550Y-98791020D02*
X145396250Y-98793570D01*
X152974410Y-83355360D02*
X153395540Y-83355360D01*
X145388550Y-98791020D02*
X145388530Y-98791000D01*
X134552850Y-63559570D02*
X136635650Y-62822970D01*
X120524220Y-79019650D02*
X121504490Y-77809110D01*
X119964218Y-81232290D02*
G75*
G02*
X120524216Y-79019661I3038782J408090D01*
G01*
X145396250Y-98793570D02*
G75*
G02*
X147356735Y-98430215I1418850J-2184830D01*
G01*
X138980198Y-101494397D02*
G75*
G02*
X133536871Y-100694337I-1828898J6474097D01*
G01*
X128360666Y-66029484D02*
G75*
G02*
X129091828Y-67794720I-1765266J-1765216D01*
G01*
X152974410Y-83355360D02*
G75*
G02*
X152155043Y-83015977I-10J1158760D01*
G01*
X129091850Y-68497380D02*
G75*
G02*
X128380651Y-70214371I-2428150J-20D01*
G01*
X132749452Y-101456367D02*
G75*
G03*
X133423175Y-101204447I32748J939267D01*
G01*
X139528427Y-62546261D02*
G75*
G02*
X140954346Y-62956538I-109627J-3064039D01*
G01*
X130321150Y-65666127D02*
G75*
G02*
X128360665Y-66029483I-1418850J2184827D01*
G01*
X123546476Y-91135729D02*
G75*
G02*
X123563854Y-93129518I-2397976J-1017871D01*
G01*
X130340327Y-103840668D02*
G75*
G02*
X132748773Y-101455223I2376573J9068D01*
G01*
X152163234Y-73321421D02*
G75*
G02*
X152145821Y-71327618I2398066J1017921D01*
G01*
X155185497Y-85335884D02*
G75*
G03*
X155745525Y-83123257I-2478797J1804584D01*
G01*
%TO.N,/A5*%
X140911880Y-75455790D02*
X140960560Y-75504480D01*
X134834997Y-91283777D02*
X135111650Y-91372570D01*
X131454050Y-102573970D02*
X131563840Y-102464180D01*
X129218846Y-77631170D02*
X130139000Y-76037450D01*
X131454049Y-102573969D02*
X131563834Y-102464184D01*
X128888650Y-81936260D02*
X129980850Y-82025370D01*
X132647850Y-102015170D02*
X133790850Y-102040570D01*
X131563840Y-102464180D02*
X131563834Y-102464184D01*
X138794160Y-73151180D02*
X140874700Y-73173380D01*
D125*
X130966250Y-104206070D02*
X130977024Y-103603570D01*
D128*
X140013850Y-73287770D02*
X140013850Y-73135370D01*
X132013490Y-90381920D02*
X133036250Y-90966907D01*
D125*
X147563521Y-80663850D02*
X147584062Y-80678782D01*
X138821496Y-91925428D02*
X138806900Y-91946220D01*
X130966250Y-104206070D02*
X130971440Y-103739090D01*
D128*
X146821040Y-82520880D02*
X147040577Y-84601829D01*
X136915530Y-91305970D02*
X136916066Y-91313556D01*
X143671450Y-81288770D02*
X144334573Y-81530117D01*
X135111650Y-91372570D02*
X136915530Y-91305970D01*
D125*
X138806900Y-91946220D02*
X138806902Y-91946221D01*
X147563521Y-80663850D02*
X147599428Y-80767688D01*
X145402833Y-88307920D02*
X145678050Y-88476970D01*
D128*
X133147614Y-91007423D02*
X133036250Y-90966907D01*
X133036250Y-90966907D02*
X133147620Y-91007440D01*
D125*
X130298017Y-76149600D02*
X130139000Y-76037450D01*
X128146179Y-83793290D02*
X128125628Y-83778358D01*
D128*
X128820784Y-78885276D02*
X128888650Y-81936260D01*
X145678050Y-88476970D02*
X146653267Y-86916299D01*
X130971440Y-103739090D02*
G75*
G02*
X131454048Y-102573968I1647760J-10D01*
G01*
X147599428Y-80767688D02*
G75*
G02*
X144334570Y-81530125I-2216228J2118688D01*
G01*
X147040577Y-84601829D02*
G75*
G02*
X146653243Y-86916284I-2987477J-689671D01*
G01*
X131563834Y-102464184D02*
G75*
G02*
X132647850Y-102015135I1084066J-1084016D01*
G01*
X128820784Y-78885276D02*
G75*
G02*
X129218837Y-77631165I3053416J-278924D01*
G01*
X134834997Y-91283777D02*
G75*
G02*
X133147613Y-91007426I212703J6588477D01*
G01*
X140911875Y-75455795D02*
G75*
G02*
X140013871Y-73287770I2168025J2167995D01*
G01*
X136916066Y-91313556D02*
G75*
G02*
X138806902Y-91946221I181734J-2598744D01*
G01*
X140874719Y-73173370D02*
G75*
G02*
X143890671Y-73836200I132381J-6590530D01*
G01*
X147584062Y-80678782D02*
G75*
G03*
X146821038Y-82520880I1842138J-1842118D01*
G01*
X138793634Y-73143584D02*
G75*
G02*
X136902791Y-72510927I-181734J2598784D01*
G01*
X140960560Y-75504480D02*
G75*
G02*
X141283880Y-76284970I-780460J-780520D01*
G01*
X128888650Y-81936260D02*
G75*
G02*
X128125654Y-83778384I-2605150J-40D01*
G01*
%TD*%
M02*
