M48
; DRILL file {KiCad 8.0.6} date 2024-11-10T20:15:27+0900
; FORMAT={-:-/ absolute / inch / decimal}
; #@! TF.CreationDate,2024-11-10T20:15:27+09:00
; #@! TF.GenerationSoftware,Kicad,Pcbnew,8.0.6
; #@! TF.FileFunction,Plated,1,2,PTH
FMAT,2
INCH
; #@! TA.AperFunction,Plated,PTH,ViaDrill
T1C0.0120
; #@! TA.AperFunction,Plated,PTH,ComponentDrill
T2C0.0250
; #@! TA.AperFunction,Plated,PTH,ComponentDrill
T3C0.0300
; #@! TA.AperFunction,Plated,PTH,ComponentDrill
T4C0.0394
%
G90
G05
T1
X4.7644Y-3.2063
X4.8164Y-3.3853
X4.8214Y-3.8973
X4.9152Y-3.1434
X4.9174Y-3.3343
X4.9194Y-4.2913
X4.9264Y-4.2353
X4.9324Y-3.8463
X4.9484Y-3.5433
X4.9664Y-4.2353
X4.9994Y-2.8993
X5.0064Y-3.8373
X5.0064Y-4.2353
X5.0084Y-3.9013
X5.0264Y-2.9643
X5.0297Y-3.0731
X5.0394Y-4.0143
X5.0464Y-4.2353
X5.0544Y-2.7643
X5.0754Y-4.0223
X5.1004Y-3.7003
X5.1064Y-4.2353
X5.1094Y-2.9323
X5.1174Y-3.2293
X5.1376Y-3.8183
X5.1424Y-3.6033
X5.1464Y-4.2353
X5.1864Y-4.2353
X5.2094Y-3.9083
X5.2264Y-4.2353
X5.2504Y-4.3723
X5.2624Y-4.2493
X5.2674Y-4.0173
X5.2914Y-4.2693
X5.3194Y-3.5973
X5.4694Y-4.2643
X5.4794Y-3.4113
X5.5354Y-3.2143
X5.5544Y-4.0023
X5.5624Y-3.0033
X5.6454Y-2.9753
X5.6564Y-3.2003
X5.724Y-3.8894
X5.8014Y-3.7273
X5.8304Y-3.3883
X5.8334Y-3.5583
X5.8604Y-3.0193
X5.8841Y-3.0919
X5.8924Y-2.8883
X5.9694Y-3.1293
X5.9904Y-3.2683
T2
X4.9444Y-3.9793
T3
X5.3676Y-4.1671
X5.466Y-4.1671
T4
X5.3184Y-4.3623
X5.3184Y-4.4623
X5.4184Y-4.3623
X5.4184Y-4.4623
X5.5184Y-4.3623
X5.5184Y-4.4623
M30
