%TF.GenerationSoftware,KiCad,Pcbnew,8.0.6*%
%TF.CreationDate,2024-11-10T20:15:22+09:00*%
%TF.ProjectId,sao-petal,73616f2d-7065-4746-916c-2e6b69636164,-*%
%TF.SameCoordinates,Original*%
%TF.FileFunction,Soldermask,Top*%
%TF.FilePolarity,Negative*%
%FSLAX46Y46*%
G04 Gerber Fmt 4.6, Leading zero omitted, Abs format (unit mm)*
G04 Created by KiCad (PCBNEW 8.0.6) date 2024-11-10 20:15:22*
%MOMM*%
%LPD*%
G01*
G04 APERTURE LIST*
G04 Aperture macros list*
%AMRoundRect*
0 Rectangle with rounded corners*
0 $1 Rounding radius*
0 $2 $3 $4 $5 $6 $7 $8 $9 X,Y pos of 4 corners*
0 Add a 4 corners polygon primitive as box body*
4,1,4,$2,$3,$4,$5,$6,$7,$8,$9,$2,$3,0*
0 Add four circle primitives for the rounded corners*
1,1,$1+$1,$2,$3*
1,1,$1+$1,$4,$5*
1,1,$1+$1,$6,$7*
1,1,$1+$1,$8,$9*
0 Add four rect primitives between the rounded corners*
20,1,$1+$1,$2,$3,$4,$5,0*
20,1,$1+$1,$4,$5,$6,$7,0*
20,1,$1+$1,$6,$7,$8,$9,0*
20,1,$1+$1,$8,$9,$2,$3,0*%
G04 Aperture macros list end*
%ADD10RoundRect,0.134112X-0.425891X0.567172X-0.607346X-0.366331X0.425891X-0.567172X0.607346X0.366331X0*%
%ADD11RoundRect,0.536448X-0.107717X0.095459X-0.135633X-0.048157X0.107717X-0.095459X0.135633X0.048157X0*%
%ADD12RoundRect,0.134112X-0.276029X0.653357X-0.677929X-0.208520X0.276029X-0.653357X0.677929X0.208520X0*%
%ADD13RoundRect,0.536448X-0.081423X0.118683X-0.143254X-0.013914X0.081423X-0.118683X0.143254X0.013914X0*%
%ADD14C,1.600200*%
%ADD15RoundRect,0.134112X0.136514X0.696011X-0.678631X0.206222X-0.136514X-0.696011X0.678631X-0.206222X0*%
%ADD16RoundRect,0.536448X-0.001136X0.143924X-0.126544X0.068572X0.001136X-0.143924X0.126544X-0.068572X0*%
%ADD17RoundRect,0.134112X0.454991X-0.544106X0.587341X0.397615X-0.454991X0.544106X-0.587341X-0.397615X0*%
%ADD18RoundRect,0.536448X0.112565X-0.089691X0.132926X0.055189X-0.112565X0.089691X-0.132926X-0.055189X0*%
%ADD19RoundRect,0.134112X0.709185X0.011178X0.060621X0.706677X-0.709185X-0.011178X-0.060621X-0.706677X0*%
%ADD20RoundRect,0.536448X0.140542X0.031035X0.040763X0.138035X-0.140542X-0.031035X-0.040763X-0.138035X0*%
%ADD21RoundRect,0.134112X0.534506X-0.466231X0.517909X0.484601X-0.534506X0.466231X-0.517909X-0.484601X0*%
%ADD22RoundRect,0.536448X0.125210X-0.070978X0.122656X0.075304X-0.125210X0.070978X-0.122656X-0.075304X0*%
%ADD23RoundRect,0.134112X-0.534506X0.466231X-0.517909X-0.484601X0.534506X-0.466231X0.517909X0.484601X0*%
%ADD24RoundRect,0.536448X-0.125210X0.070978X-0.122656X-0.075304X0.125210X-0.070978X0.122656X0.075304X0*%
%ADD25RoundRect,0.134112X-0.484601X-0.517909X0.466231X-0.534506X0.484601X0.517909X-0.466231X0.534506X0*%
%ADD26RoundRect,0.536448X-0.075304X-0.122656X0.070978X-0.125210X0.075304X0.122656X-0.070978X0.125210X0*%
%ADD27RoundRect,0.134112X-0.595499X-0.385290X0.323073X-0.631421X0.595499X0.385290X-0.323073X0.631421X0*%
%ADD28RoundRect,0.536448X-0.102741X-0.100795X0.038578X-0.138662X0.102741X0.100795X-0.038578X0.138662X0*%
%ADD29O,1.041400X1.879600*%
%ADD30RoundRect,0.208280X0.312420X-0.731520X0.312420X0.731520X-0.312420X0.731520X-0.312420X-0.731520X0*%
%ADD31RoundRect,0.134112X0.550452X-0.447293X0.500682X0.502380X-0.550452X0.447293X-0.500682X-0.502380X0*%
%ADD32RoundRect,0.536448X0.127611X-0.066565X0.119954X0.079539X-0.127611X0.066565X-0.119954X-0.079539X0*%
%ADD33RoundRect,0.134112X0.376875X0.600860X-0.559653X0.435725X-0.376875X-0.600860X0.559653X-0.435725X0*%
%ADD34RoundRect,0.536448X0.050517X0.134772X-0.093565X0.109366X-0.050517X-0.134772X0.093565X-0.109366X0*%
%ADD35RoundRect,0.134112X-0.653357X-0.276029X0.208520X-0.677929X0.653357X0.276029X-0.208520X0.677929X0*%
%ADD36RoundRect,0.536448X-0.118683X-0.081423X0.013914X-0.143254X0.118683X0.081423X-0.013914X0.143254X0*%
%ADD37RoundRect,0.134112X0.148641X0.693523X-0.674929X0.218035X-0.148641X-0.693523X0.674929X-0.218035X0*%
%ADD38RoundRect,0.536448X0.001375X0.143922X-0.125327X0.070770X-0.001375X-0.143922X0.125327X-0.070770X0*%
%ADD39RoundRect,0.134112X0.625686X-0.334043X0.395624X0.588685X-0.625686X0.334043X-0.395624X-0.588685X0*%
%ADD40RoundRect,0.536448X0.137967X-0.040992X0.102573X0.100966X-0.137967X0.040992X-0.102573X-0.100966X0*%
%ADD41RoundRect,0.134112X-0.454991X0.544106X-0.587341X-0.397615X0.454991X-0.544106X0.587341X0.397615X0*%
%ADD42RoundRect,0.536448X-0.112565X0.089691X-0.132926X-0.055189X0.112565X-0.089691X0.132926X0.055189X0*%
%ADD43RoundRect,0.134112X0.595499X0.385290X-0.323073X0.631421X-0.595499X-0.385290X0.323073X-0.631421X0*%
%ADD44RoundRect,0.536448X0.102741X0.100795X-0.038578X0.138662X-0.102741X-0.100795X0.038578X-0.138662X0*%
%ADD45RoundRect,0.134112X0.085246X-0.704131X0.709143X0.013579X-0.085246X0.704131X-0.709143X-0.013579X0*%
%ADD46RoundRect,0.536448X0.045556X-0.136528X0.141540X-0.026111X-0.045556X0.136528X-0.141540X0.026111X0*%
%ADD47RoundRect,0.134112X-0.682127X-0.194347X0.124347X-0.698288X0.682127X0.194347X-0.124347X0.698288X0*%
%ADD48RoundRect,0.536448X-0.127721X-0.066353X-0.003648X-0.143882X0.127721X0.066353X0.003648X0.143882X0*%
%ADD49O,1.903200X1.903200*%
%ADD50RoundRect,0.288300X-0.313300X0.288300X-0.313300X-0.288300X0.313300X-0.288300X0.313300X0.288300X0*%
%ADD51RoundRect,0.134112X0.631421X-0.323073X0.385290X0.595499X-0.631421X0.323073X-0.385290X-0.595499X0*%
%ADD52RoundRect,0.536448X0.138662X-0.038578X0.100795X0.102741X-0.138662X0.038578X-0.100795X-0.102741X0*%
%ADD53RoundRect,0.134112X-0.060621X0.706677X-0.709185X0.011178X0.060621X-0.706677X0.709185X-0.011178X0*%
%ADD54RoundRect,0.536448X-0.040763X0.138035X-0.140542X0.031035X0.040763X-0.138035X0.140542X-0.031035X0*%
%ADD55RoundRect,0.134112X-0.025954X-0.708798X0.702536X-0.097522X0.025954X0.708798X-0.702536X0.097522X0*%
%ADD56RoundRect,0.536448X0.023637X-0.141974X0.135712X-0.047932X-0.023637X0.141974X-0.135712X0.047932X0*%
%ADD57RoundRect,0.134112X-0.681465X0.196656X-0.264584X-0.658075X0.681465X-0.196656X0.264584X0.658075X0*%
%ADD58RoundRect,0.536448X-0.143475X0.011412X-0.079340X-0.120086X0.143475X-0.011412X0.079340X0.120086X0*%
%ADD59RoundRect,0.134112X-0.397615X-0.587341X0.544106X-0.454991X0.397615X0.587341X-0.544106X0.454991X0*%
%ADD60RoundRect,0.536448X-0.055189X-0.132926X0.089691X-0.112565X0.055189X0.132926X-0.089691X0.112565X0*%
%ADD61RoundRect,0.134112X-0.085246X0.704131X-0.709143X-0.013579X0.085246X-0.704131X0.709143X0.013579X0*%
%ADD62RoundRect,0.536448X-0.045556X0.136528X-0.141540X0.026111X0.045556X-0.136528X0.141540X-0.026111X0*%
%ADD63RoundRect,0.134112X0.397615X0.587341X-0.544106X0.454991X-0.397615X-0.587341X0.544106X-0.454991X0*%
%ADD64RoundRect,0.536448X0.055189X0.132926X-0.089691X0.112565X-0.055189X-0.132926X0.089691X-0.112565X0*%
%ADD65RoundRect,0.134112X0.158381X-0.691363X0.703839X0.087631X-0.158381X0.691363X-0.703839X-0.087631X0*%
%ADD66RoundRect,0.536448X0.059577X-0.131019X0.143494X-0.011173X-0.059577X0.131019X-0.143494X0.011173X0*%
%ADD67RoundRect,0.134112X-0.625686X0.334043X-0.395624X-0.588685X0.625686X-0.334043X0.395624X0.588685X0*%
%ADD68RoundRect,0.536448X-0.137967X0.040992X-0.102573X-0.100966X0.137967X-0.040992X0.102573X0.100966X0*%
%ADD69RoundRect,0.134112X-0.636963X0.312004X-0.374838X-0.602133X0.636963X-0.312004X0.374838X0.602133X0*%
%ADD70RoundRect,0.536448X-0.139314X0.036152X-0.098987X-0.104484X0.139314X-0.036152X0.098987X0.104484X0*%
%ADD71RoundRect,0.134112X0.276029X-0.653357X0.677929X0.208520X-0.276029X0.653357X-0.677929X-0.208520X0*%
%ADD72RoundRect,0.536448X0.081423X-0.118683X0.143254X0.013914X-0.081423X0.118683X-0.143254X-0.013914X0*%
%ADD73RoundRect,0.134112X0.415928X-0.574519X0.613647X0.355676X-0.415928X0.574519X-0.613647X-0.355676X0*%
%ADD74RoundRect,0.536448X0.106034X-0.097325X0.136453X0.045782X-0.106034X0.097325X-0.136453X-0.045782X0*%
%ADD75RoundRect,0.134112X-0.700352X0.112141X-0.182413X-0.685415X0.700352X-0.112141X0.182413X0.685415X0*%
%ADD76RoundRect,0.536448X-0.143796X-0.006159X-0.064113X-0.128860X0.143796X0.006159X0.064113X0.128860X0*%
%ADD77RoundRect,0.134112X-0.694022X-0.146291X0.075334X-0.705261X0.694022X0.146291X-0.075334X0.705261X0*%
%ADD78RoundRect,0.536448X-0.132038X-0.057282X-0.013676X-0.143277X0.132038X0.057282X0.013676X0.143277X0*%
%ADD79RoundRect,0.134112X-0.158381X0.691363X-0.703839X-0.087631X0.158381X-0.691363X0.703839X0.087631X0*%
%ADD80RoundRect,0.536448X-0.059577X0.131019X-0.143494X0.011173X0.059577X-0.131019X0.143494X-0.011173X0*%
%ADD81RoundRect,0.134112X-0.342811X0.620925X-0.652419X-0.278240X0.342811X-0.620925X0.652419X0.278240X0*%
%ADD82RoundRect,0.536448X-0.093383X0.109521X-0.141015X-0.028812X0.093383X-0.109521X0.141015X0.028812X0*%
%ADD83RoundRect,0.134112X0.342811X-0.620925X0.652419X0.278240X-0.342811X0.620925X-0.652419X-0.278240X0*%
%ADD84RoundRect,0.536448X0.093383X-0.109521X0.141015X0.028812X-0.093383X0.109521X-0.141015X-0.028812X0*%
%ADD85RoundRect,0.134112X0.344912X0.619761X-0.581690X0.405838X-0.344912X-0.619761X0.581690X-0.405838X0*%
%ADD86RoundRect,0.536448X0.043394X0.137231X-0.099160X0.104319X-0.043394X-0.137231X0.099160X-0.104319X0*%
%ADD87RoundRect,0.134112X-0.344912X-0.619761X0.581690X-0.405838X0.344912X0.619761X-0.581690X0.405838X0*%
%ADD88RoundRect,0.536448X-0.043394X-0.137231X0.099160X-0.104319X0.043394X0.137231X-0.099160X0.104319X0*%
%ADD89RoundRect,0.134112X0.060621X-0.706677X0.709185X-0.011178X-0.060621X0.706677X-0.709185X0.011178X0*%
%ADD90RoundRect,0.536448X0.040763X-0.138035X0.140542X-0.031035X-0.040763X0.138035X-0.140542X0.031035X0*%
%ADD91RoundRect,0.134112X0.493566X0.509373X-0.456831X0.542562X-0.493566X-0.509373X0.456831X-0.542562X0*%
%ADD92RoundRect,0.536448X0.077433X0.121324X-0.068782X0.126429X-0.077433X-0.121324X0.068782X-0.126429X0*%
%ADD93RoundRect,0.134112X-0.136514X-0.696011X0.678631X-0.206222X0.136514X0.696011X-0.678631X0.206222X0*%
%ADD94RoundRect,0.536448X0.001136X-0.143924X0.126544X-0.068572X-0.001136X0.143924X-0.126544X0.068572X0*%
%ADD95RoundRect,0.134112X0.025954X0.708798X-0.702536X0.097522X-0.025954X-0.708798X0.702536X-0.097522X0*%
%ADD96RoundRect,0.536448X-0.023637X0.141974X-0.135712X0.047932X0.023637X-0.141974X0.135712X-0.047932X0*%
%ADD97RoundRect,0.101600X0.180000X-0.875000X0.180000X0.875000X-0.180000X0.875000X-0.180000X-0.875000X0*%
%ADD98RoundRect,0.140800X0.140800X-0.835800X0.140800X0.835800X-0.140800X0.835800X-0.140800X-0.835800X0*%
%ADD99RoundRect,0.134112X0.425891X-0.567172X0.607346X0.366331X-0.425891X0.567172X-0.607346X-0.366331X0*%
%ADD100RoundRect,0.536448X0.107717X-0.095459X0.135633X0.048157X-0.107717X0.095459X-0.135633X-0.048157X0*%
%ADD101RoundRect,0.134112X0.677929X-0.208520X0.276029X0.653357X-0.677929X0.208520X-0.276029X-0.653357X0*%
%ADD102RoundRect,0.536448X0.143254X-0.013914X0.081423X0.118683X-0.143254X0.013914X-0.081423X-0.118683X0*%
%ADD103RoundRect,0.134112X0.682127X0.194347X-0.124347X0.698288X-0.682127X-0.194347X0.124347X-0.698288X0*%
%ADD104RoundRect,0.536448X0.127721X0.066353X0.003648X0.143882X-0.127721X-0.066353X-0.003648X-0.143882X0*%
%ADD105RoundRect,0.134112X-0.709185X-0.011178X-0.060621X-0.706677X0.709185X0.011178X0.060621X0.706677X0*%
%ADD106RoundRect,0.536448X-0.140542X-0.031035X-0.040763X-0.138035X0.140542X0.031035X0.040763X0.138035X0*%
%ADD107RoundRect,0.134112X-0.148641X-0.693523X0.674929X-0.218035X0.148641X0.693523X-0.674929X0.218035X0*%
%ADD108RoundRect,0.536448X-0.001375X-0.143922X0.125327X-0.070770X0.001375X0.143922X-0.125327X0.070770X0*%
%ADD109RoundRect,0.134112X0.694022X0.146291X-0.075334X0.705261X-0.694022X-0.146291X0.075334X-0.705261X0*%
%ADD110RoundRect,0.536448X0.132038X0.057282X0.013676X0.143277X-0.132038X-0.057282X-0.013676X-0.143277X0*%
%ADD111RoundRect,0.134112X-0.376875X-0.600860X0.559653X-0.435725X0.376875X0.600860X-0.559653X0.435725X0*%
%ADD112RoundRect,0.536448X-0.050517X-0.134772X0.093565X-0.109366X0.050517X0.134772X-0.093565X0.109366X0*%
%ADD113C,1.270000*%
%ADD114RoundRect,0.134112X0.653357X0.276029X-0.208520X0.677929X-0.653357X-0.276029X0.208520X-0.677929X0*%
%ADD115RoundRect,0.536448X0.118683X0.081423X-0.013914X0.143254X-0.118683X-0.081423X0.013914X-0.143254X0*%
%ADD116RoundRect,0.134112X0.681465X-0.196656X0.264584X0.658075X-0.681465X0.196656X-0.264584X-0.658075X0*%
%ADD117RoundRect,0.536448X0.143475X-0.011412X0.079340X0.120086X-0.143475X0.011412X-0.079340X-0.120086X0*%
%ADD118RoundRect,0.134112X-0.415928X0.574519X-0.613647X-0.355676X0.415928X-0.574519X0.613647X0.355676X0*%
%ADD119RoundRect,0.536448X-0.106034X0.097325X-0.136453X-0.045782X0.106034X-0.097325X0.136453X0.045782X0*%
%ADD120RoundRect,0.134112X-0.550452X0.447293X-0.500682X-0.502380X0.550452X-0.447293X0.500682X0.502380X0*%
%ADD121RoundRect,0.536448X-0.127611X0.066565X-0.119954X-0.079539X0.127611X-0.066565X0.119954X0.079539X0*%
%ADD122RoundRect,0.134112X-0.677929X0.208520X-0.276029X-0.653357X0.677929X-0.208520X0.276029X0.653357X0*%
%ADD123RoundRect,0.536448X-0.143254X0.013914X-0.081423X-0.118683X0.143254X-0.013914X0.081423X0.118683X0*%
G04 APERTURE END LIST*
D10*
%TO.C,LED26*%
X149335912Y-92059717D03*
D11*
X148948188Y-94054383D03*
%TD*%
D12*
%TO.C,LED27*%
X148215630Y-96649361D03*
D13*
X147356870Y-98490979D03*
%TD*%
D14*
%TO.C,TP2*%
X136336250Y-105843570D03*
%TD*%
D15*
%TO.C,LED33*%
X139792532Y-98266091D03*
D16*
X138050768Y-99312649D03*
%TD*%
D17*
%TO.C,LED49*%
X121559050Y-75411482D03*
D18*
X121841850Y-73399258D03*
%TD*%
D19*
%TO.C,LED46*%
X125593760Y-87899225D03*
D20*
X124207940Y-86413115D03*
%TD*%
D21*
%TO.C,LED48*%
X121540382Y-79993215D03*
D22*
X121504918Y-77961525D03*
%TD*%
D23*
%TO.C,LED20*%
X154169318Y-84489325D03*
D24*
X154204782Y-86521015D03*
%TD*%
D25*
%TO.C,LED7*%
X144611405Y-63745038D03*
D26*
X146643095Y-63780502D03*
%TD*%
D27*
%TO.C,LED12*%
X146347669Y-68960810D03*
D28*
X148310431Y-69486730D03*
%TD*%
D29*
%TO.C,LED57*%
X136238140Y-84678350D03*
D30*
X136238140Y-79778350D03*
D29*
X137838140Y-84678350D03*
D30*
X137838140Y-79778350D03*
D29*
X139438140Y-84678350D03*
D30*
X139438140Y-79778350D03*
%TD*%
D31*
%TO.C,LED53*%
X126264313Y-77097008D03*
D32*
X126157967Y-75067792D03*
%TD*%
D33*
%TO.C,LED39*%
X133445215Y-95133143D03*
D34*
X131444085Y-95485997D03*
%TD*%
D35*
%TO.C,LED17*%
X146433641Y-74382390D03*
D36*
X148275259Y-75241150D03*
%TD*%
D37*
%TO.C,LED38*%
X137159932Y-93379170D03*
D38*
X135400168Y-94395170D03*
%TD*%
D39*
%TO.C,LED2*%
X130789603Y-78121240D03*
D40*
X130298017Y-76149600D03*
%TD*%
D41*
%TO.C,LED21*%
X154150650Y-89299658D03*
D42*
X153867850Y-91311882D03*
%TD*%
D43*
%TO.C,LED40*%
X129362031Y-95496330D03*
D44*
X127399269Y-94970410D03*
%TD*%
D45*
%TO.C,LED4*%
X132921094Y-69279355D03*
D46*
X134254206Y-67745785D03*
%TD*%
D47*
%TO.C,LED13*%
X150328233Y-70234772D03*
D48*
X152051467Y-71311568D03*
%TD*%
D49*
%TO.C,J1*%
X140166250Y-110803570D03*
X140166250Y-113343570D03*
X137626250Y-110803570D03*
X137626251Y-113343570D03*
X135086250Y-110803570D03*
X135086250Y-113343570D03*
%TD*%
D50*
%TO.C,C1*%
X123836250Y-101893570D03*
X123836250Y-100243570D03*
%TD*%
D51*
%TO.C,LED52*%
X126992610Y-81558951D03*
D52*
X126466690Y-79596189D03*
%TD*%
D53*
%TO.C,LED28*%
X145735960Y-100764115D03*
D54*
X144350140Y-102250225D03*
%TD*%
D55*
%TO.C,LED15*%
X138219549Y-77369842D03*
D56*
X139776151Y-76063698D03*
%TD*%
D57*
%TO.C,LED19*%
X152776465Y-80197795D03*
D58*
X153667235Y-82024145D03*
%TD*%
D59*
%TO.C,LED6*%
X140074538Y-64285170D03*
D60*
X142086762Y-64002370D03*
%TD*%
D61*
%TO.C,LED32*%
X142788606Y-95177785D03*
D62*
X141455494Y-96711355D03*
%TD*%
D63*
%TO.C,LED34*%
X135762162Y-100171970D03*
D64*
X133749938Y-100454770D03*
%TD*%
D65*
%TO.C,LED9*%
X135722696Y-74196228D03*
D66*
X136888204Y-72531712D03*
%TD*%
D67*
%TO.C,LED30*%
X144911247Y-86336280D03*
D68*
X145402833Y-88307920D03*
%TD*%
D69*
%TO.C,LED24*%
X148750802Y-82902928D03*
D70*
X149310898Y-84856212D03*
%TD*%
D71*
%TO.C,LED55*%
X127494070Y-67807779D03*
D72*
X128352830Y-65966161D03*
%TD*%
D73*
%TO.C,LED8*%
X134443212Y-78243968D03*
D74*
X134865688Y-76256372D03*
%TD*%
D75*
%TO.C,LED1*%
X132272297Y-80233481D03*
D76*
X133379003Y-81937659D03*
%TD*%
D77*
%TO.C,LED23*%
X145919599Y-79469470D03*
D78*
X147563521Y-80663850D03*
%TD*%
D79*
%TO.C,LED37*%
X139987004Y-90260912D03*
D80*
X138821496Y-91925428D03*
%TD*%
D81*
%TO.C,LED31*%
X144713427Y-91199323D03*
D82*
X144051873Y-93120617D03*
%TD*%
D83*
%TO.C,LED3*%
X130996273Y-73257817D03*
D84*
X131657827Y-71336523D03*
%TD*%
D85*
%TO.C,LED44*%
X133993410Y-89924820D03*
D86*
X132013490Y-90381920D03*
%TD*%
D87*
%TO.C,LED16*%
X141716290Y-74532320D03*
D88*
X143696210Y-74075220D03*
%TD*%
D14*
%TO.C,TP3*%
X138836250Y-105843570D03*
%TD*%
D89*
%TO.C,LED56*%
X129973740Y-63693025D03*
D90*
X131359560Y-62206915D03*
%TD*%
D91*
%TO.C,LED35*%
X131097831Y-100602828D03*
D92*
X129067069Y-100531912D03*
%TD*%
D93*
%TO.C,LED5*%
X135917168Y-66191049D03*
D94*
X137658932Y-65144491D03*
%TD*%
D95*
%TO.C,LED43*%
X137490151Y-87087298D03*
D96*
X135933549Y-88393442D03*
%TD*%
D97*
%TO.C,U1*%
X125886250Y-109481070D03*
D98*
X126521250Y-109481070D03*
X127156250Y-109481070D03*
X127791250Y-109481070D03*
X128426250Y-109481070D03*
X129061250Y-109481070D03*
X129696250Y-109481070D03*
X130331250Y-109481070D03*
X130966250Y-109481070D03*
X131601250Y-109481070D03*
X132236250Y-109481070D03*
X132871250Y-109481070D03*
X132871250Y-104206070D03*
X132236250Y-104206070D03*
X131601250Y-104206070D03*
X130966250Y-104206070D03*
X130331250Y-104206070D03*
X129696250Y-104206070D03*
X129061250Y-104206070D03*
X128426250Y-104206070D03*
X127791250Y-104206070D03*
X127156250Y-104206070D03*
X126521250Y-104206070D03*
X125886250Y-104206070D03*
%TD*%
D99*
%TO.C,LED54*%
X126373788Y-72397423D03*
D100*
X126761512Y-70402757D03*
%TD*%
D101*
%TO.C,LED42*%
X122282230Y-91709179D03*
D102*
X121423470Y-89867561D03*
%TD*%
D103*
%TO.C,LED41*%
X125381467Y-94222368D03*
D104*
X123658233Y-93145572D03*
%TD*%
D63*
%TO.C,LED50*%
X134191122Y-85247090D03*
D64*
X132178898Y-85529890D03*
%TD*%
D105*
%TO.C,LED18*%
X150268340Y-76557915D03*
D106*
X151654160Y-78044025D03*
%TD*%
D59*
%TO.C,LED22*%
X141518578Y-79210050D03*
D60*
X143530802Y-78927250D03*
%TD*%
D107*
%TO.C,LED10*%
X138549768Y-71077970D03*
D108*
X140309532Y-70061970D03*
%TD*%
D109*
%TO.C,LED51*%
X129790101Y-84987670D03*
D110*
X128146179Y-83793290D03*
%TD*%
D111*
%TO.C,LED11*%
X142264485Y-69323997D03*
D112*
X144265615Y-68971143D03*
%TD*%
D113*
%TO.C,TP1*%
X125586650Y-101075370D03*
%TD*%
D114*
%TO.C,LED45*%
X129276059Y-90328750D03*
D115*
X127434441Y-89469990D03*
%TD*%
D116*
%TO.C,LED47*%
X122933235Y-84259345D03*
D117*
X122042465Y-82432995D03*
%TD*%
D118*
%TO.C,LED36*%
X141266488Y-86213172D03*
D119*
X140844012Y-88200768D03*
%TD*%
D50*
%TO.C,R6*%
X142336250Y-106918570D03*
X142336250Y-105268570D03*
%TD*%
D120*
%TO.C,LED25*%
X149445387Y-87360132D03*
D121*
X149551733Y-89389348D03*
%TD*%
D75*
%TO.C,LED29*%
X142330697Y-82519481D03*
D76*
X143437403Y-84223659D03*
%TD*%
D122*
%TO.C,LED14*%
X153427470Y-72747961D03*
D123*
X154286230Y-74589579D03*
%TD*%
M02*
